%
M48
M72
T01C0.01200
T02C0.01575
T03C0.04000
%
T01
X39066Y18243
X30199Y65459
X33650Y65787
X56509Y96640
X38598Y101239
X28261Y107749
X28240Y110795
X32152Y112691
X36161Y113712
X61169Y129161
X66299Y117921
X62237Y115805
X75323Y113332
X83558Y107051
X85826Y105077
X88262Y106899
X91044Y108399
X97838Y105628
X100255Y103802
X102376Y101680
X110437Y104251
X102114Y93840
X88025Y82677
X91770Y65787
X96107Y62341
X99037Y58996
X102244Y59106
X97980Y51473
X106031Y68986
X109027Y71982
X76876Y100124
X81360Y104780
X95713Y114470
X99776Y118195
X92881Y120685
X94423Y128535
X93200Y138248
X104284Y139036
X112802Y127266
X113027Y120074
X120809Y121542
X84180Y122173
X68054Y144452
X51756Y141334
X165256Y135633
X181344Y134625
X188297Y149393
X188286Y153594
X195559Y164398
X172982Y82254
X177387Y79151
T02
X5050Y5737
X8987Y5737
X8987Y9674
X5050Y9674
X5050Y13611
X12924Y17548
X12924Y21485
X8987Y21485
X8987Y25422
X12924Y25422
X12924Y29359
X8987Y29359
X8987Y33296
X12924Y33296
X8987Y37233
X8987Y41170
X8987Y45107
X8987Y49044
X12523Y53963
X8987Y74635
X8987Y78572
X8987Y82509
X8987Y86446
X8987Y90383
X8987Y94320
X8987Y98257
X8987Y102194
X8987Y106131
X8987Y110068
X8987Y114005
X8987Y117942
X30641Y137627
X34578Y137627
X38515Y137627
X42452Y137627
X46389Y137627
X38505Y144438
X30641Y141564
X62289Y135091
X83790Y159280
X89696Y159280
X95601Y159280
X95601Y165186
X89696Y165186
X83790Y165186
X101507Y165186
X107412Y165186
X113318Y165186
X119223Y165186
X119223Y159280
X113318Y159280
X107806Y152369
X125789Y146070
X129029Y162055
X143695Y145757
X135455Y124351
X132504Y102695
X165951Y92843
X185953Y89724
X184959Y82610
X160562Y51013
X154656Y51013
X154656Y47076
X154656Y43139
X148751Y43139
X148751Y47076
X148751Y51013
X136940Y51013
X136940Y47076
X136940Y43139
X136940Y39202
X131034Y39202
X131034Y43139
X131034Y47076
X131034Y51013
X131034Y35265
X131034Y31328
X136940Y27391
X142845Y31328
X148751Y27391
X148751Y23454
X154656Y27391
X154656Y31328
X160562Y31328
X160562Y35265
X166467Y35265
X166467Y31328
X166467Y27391
X166467Y23454
X164701Y20118
X160562Y27391
X156428Y21288
X174341Y23454
X174341Y27391
X174341Y31328
X174341Y35265
X174341Y39202
X166467Y39202
X160562Y39202
X148751Y39202
X99538Y80540
X97418Y75668
X93633Y74635
X77954Y88575
X72542Y103075
X42452Y90383
X42452Y86446
X42452Y82509
X42452Y78572
X38515Y78572
X38515Y82509
X38515Y86446
X38515Y90383
X38515Y74635
X42452Y74635
X42452Y70698
X38515Y70698
X56231Y41170
X60168Y41170
X60168Y37233
X56231Y37233
X56231Y33296
X60168Y33296
X64105Y37233
X71979Y41170
X71979Y45107
X71979Y49044
X71979Y52981
X75916Y52981
X75916Y49044
X75916Y45107
X75916Y41170
X88515Y28769
X82019Y22272
X96813Y37910
X71979Y56918
X60759Y11643
X12924Y5737
X175678Y120669
X182079Y119514
X189036Y120843
X175572Y138752
X174720Y145297
X187546Y157987
T03
X8515Y163217
X18515Y163217
X28515Y163217
X38515Y163217
X48515Y163217
X58515Y163217
X68515Y163217
X68084Y96293
X50284Y96293
X50284Y70693
X68084Y70693
X130008Y70693
X147808Y70693
X147808Y96293
X130008Y96293
M30
