%
M48
M72
T01C0.0120
T02C0.0157
T03C0.0400
%
T01
X3907Y1824
X3020Y6546
X3365Y6579
X5651Y9664
X3860Y10124
X2826Y10775
X2824Y11080
X3215Y11269
X3616Y11371
X6117Y12916
X6630Y11792
X6224Y11581
X7532Y11333
X8356Y10705
X8583Y10508
X8826Y10690
X9104Y10840
X9784Y10563
X10025Y10380
X10238Y10168
X11044Y10425
X10211Y9384
X8803Y8268
X9177Y6579
X9611Y6234
X9904Y5900
X10224Y5911
X9798Y5147
X10603Y6899
X10824Y7119
X7688Y10012
X8136Y10478
X9571Y11447
X9978Y11820
X9288Y12068
X9442Y12853
X9320Y13825
X10428Y13904
X11280Y12727
X11303Y12007
X12081Y12154
X8418Y12217
X6805Y14445
X5176Y14133
X16526Y13563
X18134Y13462
X18830Y14939
X18829Y15359
X19556Y16440
X17298Y8225
X17739Y7915
T02
X505Y574
X505Y967
X899Y967
X899Y574
X1292Y574
X505Y1361
X1292Y1755
X1292Y2149
X1292Y2542
X899Y2542
X899Y2149
X899Y2936
X1292Y2936
X1292Y3330
X899Y3330
X899Y3723
X899Y4117
X899Y4511
X899Y4904
X1252Y5396
X899Y7463
X899Y7857
X899Y8251
X899Y8645
X899Y9038
X899Y9432
X899Y9826
X899Y10219
X899Y10613
X899Y11007
X899Y11400
X899Y11794
X3064Y13763
X3064Y14156
X3458Y13763
X3851Y13763
X4245Y13763
X4639Y13763
X3851Y14444
X6229Y13509
X8379Y15928
X8970Y15928
X9560Y15928
X9560Y16519
X8970Y16519
X8379Y16519
X10151Y16519
X10741Y16519
X11332Y16519
X11922Y16519
X11922Y15928
X11332Y15928
X10781Y15237
X12579Y14607
X12903Y16205
X14369Y14576
X13545Y12435
X13250Y10270
X16595Y9284
X18595Y8972
X18496Y8261
X16056Y5101
X15466Y5101
X15466Y4708
X15466Y4314
X14875Y4314
X14875Y4708
X14875Y5101
X14875Y3920
X14285Y3133
X14875Y2739
X14875Y2345
X15466Y2739
X15466Y3133
X16056Y3133
X16056Y3526
X16647Y3526
X16647Y3133
X16647Y2739
X16647Y2345
X16470Y2012
X16056Y2739
X15643Y2129
X17434Y2345
X17434Y2739
X17434Y3133
X17434Y3526
X17434Y3920
X16647Y3920
X16056Y3920
X13694Y3920
X13694Y4314
X13694Y4708
X13694Y5101
X13103Y5101
X13103Y4708
X13103Y4314
X13103Y3920
X13103Y3526
X13103Y3133
X13694Y2739
X9681Y3791
X8851Y2877
X8202Y2227
X6411Y3723
X6017Y3723
X5623Y3723
X5623Y3330
X6017Y3330
X6017Y4117
X5623Y4117
X7198Y4117
X7592Y4117
X7592Y4511
X7592Y4904
X7198Y4904
X7198Y4511
X7198Y5298
X7592Y5298
X7198Y5692
X9363Y7463
X9742Y7567
X9954Y8054
X7795Y8857
X7254Y10307
X4245Y9038
X4245Y8645
X3851Y8645
X3851Y9038
X3851Y8251
X3851Y7857
X4245Y7857
X4245Y8251
X4245Y7463
X4245Y7070
X3851Y7070
X3851Y7463
X6076Y1164
X17568Y12067
X18208Y11951
X18904Y12084
X17557Y13875
X17472Y14530
X18755Y15799
T03
X851Y16322
X1851Y16322
X2851Y16322
X3851Y16322
X4851Y16322
X5851Y16322
X6851Y16322
X6808Y9629
X5028Y9629
X5028Y7069
X6808Y7069
X13001Y7069
X14781Y7069
X14781Y9629
X13001Y9629
M30
