G75*
%MOIN*%
%OFA0B0*%
%FSLAX25Y25*%
%IPPOS*%
%LPD*%
%AMOC8*
5,1,8,0,0,1.08239X$1,22.5*
%
%ADD10C,0.00000*%
%ADD11R,0.05124X0.02565*%
%ADD12R,0.09258X0.03943*%
%ADD13R,0.11424X0.03943*%
%ADD14R,0.18904X0.18510*%
%ADD15R,0.05124X0.02172*%
%ADD16R,0.03550X0.08274*%
%ADD17C,0.04337*%
%ADD18R,0.08274X0.03550*%
%ADD19C,0.04337*%
%ADD20R,0.09100X0.02800*%
%ADD21R,0.06699X0.10636*%
%ADD22R,0.10636X0.06699*%
%ADD23R,0.05518X0.08274*%
%ADD24R,0.03900X0.03500*%
%ADD25C,0.07800*%
%ADD26R,0.03156X0.03943*%
%ADD27R,0.03943X0.03156*%
%ADD28R,0.05361X0.01817*%
%ADD29R,0.04731X0.04337*%
%ADD30C,0.06400*%
D10*
X0001113Y0001800D02*
X0001113Y0170698D01*
X0197767Y0170698D01*
X0197767Y0001800D01*
X0001113Y0001800D01*
D11*
X0178081Y0124044D03*
X0178081Y0127784D03*
X0178081Y0131524D03*
X0188318Y0131524D03*
X0188318Y0124044D03*
D12*
X0153377Y0141957D03*
X0153377Y0146879D03*
X0153377Y0151997D03*
X0153377Y0156918D03*
X0132314Y0156918D03*
X0132314Y0151997D03*
X0132314Y0141957D03*
D13*
X0133396Y0146879D03*
D14*
X0173357Y0108099D03*
D15*
X0157609Y0105599D03*
X0157609Y0100599D03*
X0157609Y0110599D03*
X0157609Y0115599D03*
X0189105Y0115599D03*
X0189105Y0110599D03*
X0189105Y0105599D03*
X0189105Y0100599D03*
D16*
X0163278Y0059359D03*
X0158554Y0059359D03*
X0153830Y0059359D03*
X0149105Y0059359D03*
X0144381Y0059359D03*
X0139656Y0059359D03*
X0134932Y0059359D03*
X0130207Y0059359D03*
X0130207Y0014083D03*
X0134932Y0014083D03*
X0139656Y0014083D03*
X0144381Y0014083D03*
X0149105Y0014083D03*
X0153830Y0014083D03*
X0158554Y0014083D03*
X0163278Y0014083D03*
D17*
X0120365Y0014083D03*
X0120365Y0059359D03*
D18*
X0120365Y0048532D03*
X0120365Y0043808D03*
X0120365Y0039083D03*
X0120365Y0034359D03*
X0120365Y0029635D03*
X0120365Y0024910D03*
D19*
X0169184Y0017233D02*
X0171546Y0017233D01*
X0169184Y0017233D02*
X0169184Y0017233D01*
X0171546Y0017233D01*
X0171546Y0017233D01*
X0171546Y0056209D02*
X0169184Y0056209D01*
X0169184Y0056209D01*
X0171546Y0056209D01*
X0171546Y0056209D01*
D20*
X0051767Y0027017D03*
X0051767Y0022017D03*
X0051767Y0017017D03*
X0051767Y0012017D03*
X0031167Y0012017D03*
X0031167Y0017017D03*
X0031167Y0022017D03*
X0031167Y0027017D03*
D21*
X0035562Y0054950D03*
X0047373Y0054950D03*
D22*
X0047373Y0045107D03*
X0035562Y0045107D03*
X0035562Y0033296D03*
X0047373Y0033296D03*
D23*
X0009971Y0062430D03*
X0009971Y0134083D03*
D24*
X0062200Y0058650D03*
X0054200Y0054850D03*
X0062200Y0051050D03*
X0069089Y0031091D03*
X0069089Y0023491D03*
X0061089Y0027291D03*
D25*
X0068084Y0070693D03*
X0050284Y0070693D03*
X0050284Y0096293D03*
X0068084Y0096293D03*
X0130008Y0096293D03*
X0147808Y0096293D03*
X0147808Y0070693D03*
X0130008Y0070693D03*
D26*
X0157019Y0092351D03*
X0162137Y0092351D03*
X0149341Y0104162D03*
X0144223Y0104162D03*
X0146192Y0165186D03*
X0151310Y0165186D03*
X0137530Y0165186D03*
X0132412Y0165186D03*
X0183593Y0165186D03*
X0188711Y0165186D03*
X0067648Y0103178D03*
X0062530Y0103178D03*
X0060562Y0046091D03*
X0065680Y0046091D03*
X0067452Y0018532D03*
X0072570Y0018532D03*
X0060759Y0007706D03*
X0055641Y0007706D03*
X0047963Y0007706D03*
X0042845Y0007706D03*
X0035168Y0007706D03*
X0030050Y0007706D03*
X0023357Y0022469D03*
X0018239Y0022469D03*
X0149144Y0005737D03*
X0154263Y0005737D03*
D27*
X0073948Y0024831D03*
X0073948Y0029950D03*
X0061152Y0022076D03*
X0061152Y0016957D03*
X0023751Y0016170D03*
X0023751Y0011052D03*
X0023751Y0028769D03*
X0023751Y0033887D03*
X0023751Y0041564D03*
X0023751Y0046682D03*
X0029656Y0052391D03*
X0029656Y0057509D03*
X0067058Y0057509D03*
X0067058Y0052391D03*
X0160562Y0139005D03*
X0160562Y0144123D03*
X0194026Y0130343D03*
X0194026Y0125225D03*
X0077885Y0158690D03*
X0077885Y0163808D03*
D28*
X0169814Y0159083D03*
X0169814Y0156524D03*
X0169814Y0153965D03*
X0169814Y0151406D03*
X0169814Y0148847D03*
X0169814Y0146288D03*
X0169814Y0143729D03*
X0192648Y0143729D03*
X0192648Y0146288D03*
X0192648Y0148847D03*
X0192648Y0151406D03*
X0192648Y0153965D03*
X0192648Y0156524D03*
X0192648Y0159083D03*
D29*
X0186546Y0138611D03*
X0179853Y0138611D03*
X0166861Y0005737D03*
X0160168Y0005737D03*
D30*
X0068515Y0160217D02*
X0068515Y0166217D01*
X0058515Y0166217D02*
X0058515Y0160217D01*
X0048515Y0160217D02*
X0048515Y0166217D01*
X0038515Y0166217D02*
X0038515Y0160217D01*
X0028515Y0160217D02*
X0028515Y0166217D01*
X0018515Y0166217D02*
X0018515Y0160217D01*
X0008515Y0160217D02*
X0008515Y0166217D01*
M02*
