G75*
%MOIN*%
%OFA0B0*%
%FSLAX25Y25*%
%IPPOS*%
%LPD*%
%AMOC8*
5,1,8,0,0,1.08239X$1,22.5*
%
%ADD10C,0.00000*%
%ADD11R,0.03937X0.00866*%
%ADD12R,0.00866X0.03937*%
%ADD13R,0.01142X0.02500*%
%ADD14R,0.01142X0.02756*%
%ADD15R,0.02500X0.01142*%
%ADD16R,0.02756X0.01142*%
%ADD17R,0.11811X0.01575*%
%ADD18R,0.01181X0.02559*%
%ADD19R,0.08661X0.06299*%
%ADD20R,0.03543X0.01142*%
%ADD21R,0.02756X0.03543*%
%ADD22R,0.03543X0.02756*%
%ADD23R,0.05118X0.05906*%
%ADD24R,0.05118X0.02756*%
%ADD25R,0.04331X0.02362*%
%ADD26R,0.03100X0.03500*%
%ADD27C,0.07400*%
%ADD28R,0.04331X0.03937*%
%ADD29R,0.05906X0.05118*%
%ADD30R,0.02600X0.08000*%
%ADD31R,0.07677X0.05906*%
%ADD32C,0.06000*%
%ADD33C,0.01000*%
%ADD34C,0.01181*%
%ADD35C,0.02775*%
%ADD36C,0.01600*%
%ADD37C,0.01575*%
%ADD38C,0.00600*%
%ADD39C,0.02400*%
D10*
X0001113Y0001800D02*
X0001113Y0170698D01*
X0197767Y0170698D01*
X0197767Y0001800D01*
X0001113Y0001800D01*
D11*
X0071546Y0105698D03*
X0071546Y0107666D03*
X0071546Y0109635D03*
X0071546Y0111603D03*
X0071546Y0113572D03*
X0071546Y0115540D03*
X0071546Y0117509D03*
X0071546Y0119477D03*
X0071546Y0121446D03*
X0071546Y0123414D03*
X0071546Y0125383D03*
X0071546Y0127351D03*
X0071546Y0129320D03*
X0071546Y0131288D03*
X0071546Y0133257D03*
X0071546Y0135225D03*
X0116822Y0135225D03*
X0116822Y0133257D03*
X0116822Y0131288D03*
X0116822Y0129320D03*
X0116822Y0127351D03*
X0116822Y0125383D03*
X0116822Y0123414D03*
X0116822Y0121446D03*
X0116822Y0119477D03*
X0116822Y0117509D03*
X0116822Y0115540D03*
X0116822Y0113572D03*
X0116822Y0111603D03*
X0116822Y0109635D03*
X0116822Y0107666D03*
X0116822Y0105698D03*
D12*
X0108948Y0097824D03*
X0106979Y0097824D03*
X0105011Y0097824D03*
X0103042Y0097824D03*
X0101074Y0097824D03*
X0099105Y0097824D03*
X0097137Y0097824D03*
X0095168Y0097824D03*
X0093200Y0097824D03*
X0091231Y0097824D03*
X0089263Y0097824D03*
X0087294Y0097824D03*
X0085326Y0097824D03*
X0083357Y0097824D03*
X0081389Y0097824D03*
X0079420Y0097824D03*
X0079420Y0143099D03*
X0081389Y0143099D03*
X0083357Y0143099D03*
X0085326Y0143099D03*
X0087294Y0143099D03*
X0089263Y0143099D03*
X0091231Y0143099D03*
X0093200Y0143099D03*
X0095168Y0143099D03*
X0097137Y0143099D03*
X0099105Y0143099D03*
X0101074Y0143099D03*
X0103042Y0143099D03*
X0105011Y0143099D03*
X0106979Y0143099D03*
X0108948Y0143099D03*
D13*
X0182215Y0093828D03*
X0192058Y0093828D03*
X0192058Y0079064D03*
X0182215Y0079064D03*
D14*
X0184184Y0079064D03*
X0186152Y0079064D03*
X0188121Y0079064D03*
X0190089Y0079064D03*
X0190089Y0093828D03*
X0188121Y0093828D03*
X0186152Y0093828D03*
X0184184Y0093828D03*
D15*
X0179755Y0091367D03*
X0179755Y0081524D03*
X0194519Y0081524D03*
X0194519Y0091367D03*
D16*
X0194519Y0089398D03*
X0194519Y0087430D03*
X0194519Y0085461D03*
X0194519Y0083493D03*
X0179755Y0083493D03*
X0179755Y0085461D03*
X0179755Y0087430D03*
X0179755Y0089398D03*
D17*
X0020483Y0090894D03*
X0020483Y0094044D03*
X0020483Y0097194D03*
X0020483Y0100343D03*
X0020483Y0103493D03*
X0020483Y0106643D03*
X0020483Y0109792D03*
X0020483Y0112942D03*
X0020483Y0116091D03*
X0020483Y0119241D03*
X0020483Y0122391D03*
X0020483Y0125540D03*
X0020483Y0128690D03*
X0020483Y0131839D03*
X0020483Y0134989D03*
X0020483Y0138139D03*
X0020483Y0141288D03*
X0020483Y0144438D03*
X0020483Y0147587D03*
X0020483Y0150737D03*
X0020483Y0087745D03*
X0020483Y0084595D03*
X0020483Y0081446D03*
X0020483Y0078296D03*
X0020483Y0075146D03*
X0020483Y0071997D03*
X0020483Y0068847D03*
X0020483Y0065698D03*
X0020483Y0062548D03*
X0020483Y0059398D03*
X0020483Y0056249D03*
X0020483Y0053099D03*
X0020483Y0049950D03*
X0020483Y0046800D03*
X0020483Y0043650D03*
X0020483Y0040501D03*
X0020483Y0037351D03*
D18*
X0183593Y0132115D03*
X0186152Y0132115D03*
X0188711Y0132115D03*
X0188711Y0139202D03*
X0186152Y0139202D03*
X0183593Y0139202D03*
D19*
X0120207Y0036839D03*
X0120207Y0025816D03*
D20*
X0109617Y0032154D03*
X0109617Y0034123D03*
X0109617Y0036091D03*
X0109617Y0038060D03*
X0109617Y0040028D03*
X0092688Y0040028D03*
X0092688Y0038060D03*
X0092688Y0036091D03*
X0092688Y0034123D03*
X0092688Y0032154D03*
D21*
X0091270Y0045107D03*
X0086152Y0045107D03*
X0086152Y0051013D03*
X0091270Y0051013D03*
X0097963Y0045107D03*
X0103081Y0045107D03*
X0111743Y0045107D03*
X0111743Y0050028D03*
X0116861Y0050028D03*
X0116861Y0045107D03*
X0080444Y0092351D03*
X0075326Y0092351D03*
X0045995Y0110068D03*
X0040877Y0110068D03*
X0038121Y0096288D03*
X0033003Y0096288D03*
X0107806Y0148454D03*
X0112924Y0148454D03*
X0137333Y0131721D03*
X0142452Y0131721D03*
X0132609Y0114989D03*
X0132609Y0110461D03*
X0132609Y0105934D03*
X0127491Y0105934D03*
X0127491Y0110461D03*
X0127491Y0114989D03*
D22*
X0138121Y0112627D03*
X0138121Y0107509D03*
X0142648Y0107706D03*
X0142648Y0102587D03*
X0142648Y0115383D03*
X0142648Y0120501D03*
X0128081Y0131131D03*
X0128081Y0136249D03*
X0122176Y0136052D03*
X0122176Y0141170D03*
X0100522Y0151800D03*
X0100522Y0156918D03*
X0066074Y0139202D03*
X0066074Y0134083D03*
X0034578Y0107706D03*
X0034578Y0102587D03*
X0104459Y0089989D03*
X0104459Y0084871D03*
X0084774Y0037824D03*
X0084774Y0032706D03*
X0174341Y0068139D03*
X0179263Y0068139D03*
X0184184Y0068139D03*
X0184184Y0073257D03*
X0179263Y0073257D03*
X0174341Y0073257D03*
X0175326Y0085855D03*
X0175326Y0090973D03*
X0193042Y0133099D03*
X0193042Y0138217D03*
D23*
X0102294Y0025422D03*
X0094814Y0025422D03*
D24*
X0181330Y0147076D03*
X0181330Y0151406D03*
X0181330Y0155737D03*
X0192944Y0155737D03*
X0192944Y0151406D03*
X0192944Y0147076D03*
D25*
X0155641Y0148650D03*
X0155641Y0154162D03*
D26*
X0047136Y0105209D03*
X0039536Y0105209D03*
X0043336Y0097209D03*
D27*
X0050284Y0096293D03*
X0068084Y0096293D03*
X0068084Y0070693D03*
X0050284Y0070693D03*
X0130008Y0070693D03*
X0147808Y0070693D03*
X0147808Y0096293D03*
X0130008Y0096293D03*
D28*
X0179853Y0125816D03*
X0186546Y0125816D03*
X0189499Y0165186D03*
X0182806Y0165186D03*
D29*
X0193042Y0071485D03*
X0193042Y0064005D03*
D30*
X0147393Y0139306D03*
X0142393Y0139306D03*
X0137393Y0139306D03*
X0132393Y0139306D03*
X0132393Y0163506D03*
X0137393Y0163506D03*
X0142393Y0163506D03*
X0147393Y0163506D03*
D31*
X0176802Y0103178D03*
X0187629Y0103178D03*
D32*
X0068515Y0160217D02*
X0068515Y0166217D01*
X0058515Y0166217D02*
X0058515Y0160217D01*
X0048515Y0160217D02*
X0048515Y0166217D01*
X0038515Y0166217D02*
X0038515Y0160217D01*
X0028515Y0160217D02*
X0028515Y0166217D01*
X0018515Y0166217D02*
X0018515Y0160217D01*
X0008515Y0160217D02*
X0008515Y0166217D01*
D33*
X0008515Y0163217D02*
X0008515Y0155930D01*
X0012826Y0151619D01*
X0014946Y0153739D01*
X0019036Y0153739D01*
X0021227Y0155930D01*
X0028515Y0155930D01*
X0028515Y0163217D01*
X0038515Y0163217D02*
X0038515Y0154552D01*
X0095097Y0154552D01*
X0097463Y0156918D01*
X0100522Y0156918D01*
X0107519Y0156918D01*
X0112924Y0151513D01*
X0118487Y0151513D01*
X0129029Y0162055D01*
X0132393Y0162055D01*
X0132393Y0163506D01*
X0112924Y0151513D02*
X0112924Y0148454D01*
X0112924Y0145394D01*
X0112924Y0140003D01*
X0112764Y0139843D01*
X0108948Y0139843D01*
X0108948Y0143099D01*
X0106979Y0143099D02*
X0106979Y0147627D01*
X0107806Y0148454D01*
X0107806Y0152369D01*
X0113566Y0135225D02*
X0116822Y0135225D01*
X0120865Y0135225D01*
X0121692Y0136052D02*
X0122176Y0136052D01*
X0135455Y0124351D02*
X0138802Y0121004D01*
X0138802Y0120501D01*
X0142648Y0120501D01*
X0157321Y0120501D01*
X0175572Y0138752D01*
X0183593Y0132115D02*
X0183593Y0129548D01*
X0183117Y0129072D01*
X0179853Y0129072D01*
X0179853Y0125816D01*
X0179853Y0122560D01*
X0182079Y0120334D01*
X0182079Y0119514D01*
X0186546Y0122560D02*
X0186546Y0125816D01*
X0186546Y0129072D01*
X0188235Y0129072D01*
X0188711Y0129548D01*
X0188711Y0130831D01*
X0188711Y0132115D01*
X0189983Y0132103D02*
X0189983Y0133099D01*
X0193042Y0133099D01*
X0189983Y0132103D02*
X0188711Y0130831D01*
X0187319Y0122560D02*
X0186546Y0122560D01*
X0187319Y0122560D02*
X0189036Y0120843D01*
X0189036Y0108825D01*
X0187629Y0107418D01*
X0187629Y0103178D01*
X0176802Y0103178D02*
X0176802Y0098938D01*
X0175326Y0097461D01*
X0175326Y0090973D01*
X0172266Y0090973D01*
X0171379Y0090086D01*
X0168707Y0090086D01*
X0168707Y0068787D01*
X0173490Y0064005D01*
X0164701Y0055216D01*
X0164701Y0020118D01*
X0123417Y0059643D02*
X0116861Y0053087D01*
X0116861Y0050028D01*
X0116861Y0045107D01*
X0116861Y0053087D02*
X0109829Y0053087D01*
X0105727Y0048986D01*
X0105747Y0048966D01*
X0105747Y0033115D01*
X0105672Y0033040D01*
X0106558Y0032154D02*
X0109617Y0032154D01*
X0095315Y0036091D02*
X0094883Y0036091D01*
X0084774Y0032706D02*
X0081715Y0035765D01*
X0081715Y0067245D01*
X0104459Y0089989D01*
X0104459Y0091216D01*
X0104459Y0092654D01*
X0105011Y0093206D01*
X0105011Y0097824D01*
X0105011Y0101080D01*
X0105011Y0102564D01*
X0099459Y0108116D01*
X0094620Y0108116D01*
X0094456Y0108279D01*
X0094456Y0108514D01*
X0083609Y0119362D01*
X0083469Y0119362D01*
X0081692Y0121139D01*
X0081692Y0127837D01*
X0074304Y0135225D01*
X0072925Y0135225D01*
X0071546Y0135225D01*
X0072925Y0135225D02*
X0069133Y0139018D01*
X0069133Y0139202D01*
X0066074Y0139202D01*
X0066074Y0141867D01*
X0063528Y0144412D01*
X0039096Y0144412D01*
X0038505Y0144438D01*
X0020483Y0141288D02*
X0013290Y0141288D01*
X0013290Y0151154D01*
X0012826Y0151619D01*
X0013290Y0141288D02*
X0009637Y0137636D01*
X0009441Y0052534D01*
X0012025Y0049950D01*
X0013290Y0049950D01*
X0020483Y0049950D01*
X0027676Y0049950D01*
X0027676Y0056249D01*
X0020483Y0056249D01*
X0020483Y0053099D02*
X0013290Y0053099D01*
X0013290Y0053197D01*
X0012523Y0053963D01*
X0027676Y0056249D02*
X0039884Y0068456D01*
X0039884Y0088395D01*
X0047782Y0096293D01*
X0050284Y0096293D01*
X0047136Y0105209D02*
X0047136Y0105868D01*
X0072542Y0103075D02*
X0072542Y0099224D01*
X0075326Y0096440D01*
X0075326Y0095410D01*
X0075326Y0092351D01*
X0077954Y0089862D02*
X0077954Y0088575D01*
X0077954Y0089862D02*
X0080444Y0092351D01*
X0081389Y0093296D01*
X0081389Y0097824D01*
X0079420Y0097824D02*
X0079420Y0101080D01*
X0087257Y0101080D01*
X0094456Y0108279D01*
X0106979Y0097824D02*
X0106979Y0093550D01*
X0107519Y0093010D01*
X0107519Y0087930D01*
X0104459Y0084871D01*
X0104459Y0082205D01*
X0097418Y0075164D01*
X0097418Y0075668D01*
X0097313Y0074881D01*
X0089258Y0066826D01*
X0089258Y0056085D01*
X0091270Y0054072D01*
X0091270Y0051013D01*
X0093936Y0051013D01*
X0095963Y0048986D01*
X0105727Y0048986D01*
X0123417Y0059643D02*
X0123417Y0089702D01*
X0130008Y0096293D01*
X0132507Y0096293D01*
X0138802Y0102587D01*
X0138802Y0103965D01*
X0138121Y0104646D01*
X0138121Y0107509D01*
X0135168Y0110461D01*
X0132609Y0110461D01*
X0132609Y0111930D01*
X0132609Y0114989D01*
X0132609Y0105934D02*
X0132609Y0103771D01*
X0132504Y0102695D01*
X0138802Y0102587D02*
X0142648Y0102587D01*
X0156206Y0102587D01*
X0165951Y0092843D01*
X0168707Y0090086D01*
X0172266Y0085855D02*
X0175326Y0085855D01*
X0178385Y0085855D01*
X0178765Y0086236D01*
X0179755Y0086236D01*
X0179755Y0087430D01*
X0179755Y0089398D01*
X0179832Y0089475D01*
X0179832Y0091290D01*
X0182215Y0091290D01*
X0182215Y0093828D01*
X0179755Y0091367D02*
X0179832Y0091290D01*
X0179755Y0086236D02*
X0180313Y0086236D01*
X0181087Y0085461D01*
X0179755Y0085461D01*
X0181087Y0085461D02*
X0182420Y0085461D01*
X0184959Y0082923D01*
X0184959Y0082610D01*
X0192058Y0079064D02*
X0192058Y0075928D01*
X0193042Y0074944D01*
X0193042Y0071485D01*
X0193042Y0064005D02*
X0173490Y0064005D01*
X0174341Y0068139D02*
X0176204Y0068139D01*
X0179263Y0068139D01*
X0174341Y0068139D02*
X0170495Y0071985D01*
X0170495Y0084083D01*
X0172266Y0085855D01*
X0185953Y0089724D02*
X0186278Y0089398D01*
X0191853Y0089398D01*
X0194519Y0089398D01*
X0194519Y0087430D02*
X0191853Y0087430D01*
X0191853Y0089398D01*
X0194519Y0087430D02*
X0194519Y0085461D01*
X0194519Y0083493D01*
X0194519Y0081524D01*
X0176802Y0103178D02*
X0176802Y0107418D01*
X0175678Y0108542D01*
X0175678Y0120669D01*
X0143239Y0131040D02*
X0142452Y0131721D01*
X0142393Y0131887D02*
X0143239Y0131040D01*
X0137530Y0131733D02*
X0137530Y0132024D01*
X0137393Y0132871D01*
X0137530Y0131733D02*
X0137333Y0131721D01*
X0142393Y0139306D02*
X0142393Y0144594D01*
X0142532Y0144594D01*
X0179406Y0151406D02*
X0181330Y0151406D01*
X0179459Y0151800D02*
X0179406Y0151406D01*
X0179406Y0155737D02*
X0181330Y0155737D01*
X0079420Y0097824D02*
X0077007Y0095410D01*
X0075326Y0095410D01*
X0071546Y0133257D02*
X0066900Y0133257D01*
X0066074Y0134083D01*
X0063015Y0134083D01*
X0063015Y0134365D01*
X0062289Y0135091D01*
X0020483Y0134989D02*
X0013737Y0134989D01*
X0013290Y0134989D01*
X0013290Y0138139D01*
X0020483Y0138139D01*
X0013290Y0134989D02*
X0013290Y0084595D01*
X0013737Y0084595D01*
D34*
X0020483Y0084595D01*
X0013290Y0084595D02*
X0012523Y0083828D01*
X0012523Y0053963D01*
X0084774Y0037824D02*
X0088037Y0037824D01*
X0089066Y0038853D01*
X0089223Y0038853D01*
X0090016Y0038060D01*
X0092688Y0038060D01*
X0092688Y0040028D02*
X0094769Y0040028D01*
X0096240Y0041499D01*
X0100175Y0041499D01*
X0102181Y0043505D01*
X0097963Y0045107D02*
X0091270Y0045107D01*
X0086349Y0044713D02*
X0086349Y0041569D01*
X0086743Y0041176D01*
X0089066Y0038853D01*
X0092688Y0036091D02*
X0094217Y0036091D01*
X0094883Y0036091D01*
X0095315Y0036091D02*
X0095747Y0036091D01*
X0095747Y0034123D01*
X0092688Y0034123D01*
X0092688Y0032154D02*
X0088385Y0032154D01*
X0092688Y0032154D02*
X0095747Y0032154D01*
X0095747Y0030595D01*
X0094814Y0029662D01*
X0095315Y0036091D02*
X0096616Y0037392D01*
X0096813Y0037910D01*
X0086349Y0044713D02*
X0086152Y0045107D01*
X0109617Y0040028D02*
X0111466Y0040028D01*
X0112289Y0040851D01*
X0112289Y0041890D01*
X0111743Y0042435D01*
X0111743Y0045107D01*
X0114208Y0039979D02*
X0112289Y0038060D01*
X0109617Y0038060D01*
X0109617Y0036091D02*
X0114229Y0036091D01*
X0114977Y0036839D01*
X0120207Y0036839D01*
X0120207Y0029865D02*
X0116546Y0029865D01*
X0112289Y0034123D01*
X0109617Y0034123D01*
X0120207Y0029865D02*
X0120207Y0025816D01*
X0125410Y0131131D02*
X0128081Y0131131D01*
X0125410Y0131131D02*
X0125252Y0131288D01*
X0119690Y0131288D01*
X0116822Y0131288D01*
X0113566Y0135225D02*
X0112764Y0136027D01*
X0112764Y0139843D01*
X0120865Y0135225D02*
X0121692Y0136052D01*
X0122176Y0141170D02*
X0122176Y0143835D01*
X0124312Y0145972D01*
X0127167Y0145972D01*
X0125789Y0146070D01*
X0127167Y0145972D02*
X0137393Y0145972D01*
X0137393Y0139306D01*
X0137393Y0132871D01*
X0142393Y0131887D02*
X0142393Y0139306D01*
X0147393Y0139306D02*
X0147393Y0144206D01*
X0149755Y0146569D01*
X0155641Y0146569D01*
X0155641Y0148650D01*
X0155641Y0154162D02*
X0155641Y0156243D01*
X0149755Y0156243D01*
X0147393Y0158606D01*
X0147393Y0163506D01*
X0142393Y0163506D02*
X0142393Y0168347D01*
X0142393Y0168991D01*
X0137393Y0168991D01*
X0137393Y0163506D01*
X0137393Y0145972D01*
X0142532Y0144594D02*
X0143695Y0145757D01*
X0132393Y0139306D02*
X0128861Y0139306D01*
X0128081Y0138527D01*
X0128081Y0136249D01*
X0142393Y0168991D02*
X0188950Y0168991D01*
X0189499Y0168442D01*
X0189499Y0165186D01*
X0189499Y0159940D01*
X0187546Y0157987D01*
X0188286Y0153594D02*
X0189485Y0152395D01*
X0191847Y0152391D01*
X0192944Y0151406D01*
X0192944Y0155737D02*
X0195222Y0155934D01*
X0195222Y0163750D01*
X0195559Y0164398D01*
X0182806Y0165186D02*
X0182806Y0161930D01*
X0179406Y0158530D01*
X0179406Y0155737D01*
X0179406Y0151406D01*
X0179459Y0151800D02*
X0177044Y0151800D01*
X0176499Y0151255D01*
X0176499Y0147076D01*
X0181330Y0147076D01*
X0176499Y0147076D02*
X0174720Y0145297D01*
X0188297Y0149393D02*
X0189485Y0148205D01*
X0189485Y0147076D01*
X0192944Y0147076D01*
D35*
X0187546Y0157987D03*
X0174720Y0145297D03*
X0175572Y0138752D03*
X0175678Y0120669D03*
X0182079Y0119514D03*
X0189036Y0120843D03*
X0165951Y0092843D03*
X0185953Y0089724D03*
X0184959Y0082610D03*
X0160562Y0051013D03*
X0154656Y0051013D03*
X0154656Y0047076D03*
X0154656Y0043139D03*
X0148751Y0043139D03*
X0148751Y0047076D03*
X0148751Y0051013D03*
X0136940Y0051013D03*
X0136940Y0047076D03*
X0136940Y0043139D03*
X0136940Y0039202D03*
X0131034Y0039202D03*
X0131034Y0043139D03*
X0131034Y0047076D03*
X0131034Y0051013D03*
X0131034Y0035265D03*
X0131034Y0031328D03*
X0136940Y0027391D03*
X0142845Y0031328D03*
X0148751Y0027391D03*
X0148751Y0023454D03*
X0154656Y0027391D03*
X0154656Y0031328D03*
X0160562Y0031328D03*
X0160562Y0035265D03*
X0166467Y0035265D03*
X0166467Y0031328D03*
X0166467Y0027391D03*
X0166467Y0023454D03*
X0164701Y0020118D03*
X0160562Y0027391D03*
X0156428Y0021288D03*
X0174341Y0023454D03*
X0174341Y0027391D03*
X0174341Y0031328D03*
X0174341Y0035265D03*
X0174341Y0039202D03*
X0166467Y0039202D03*
X0160562Y0039202D03*
X0148751Y0039202D03*
X0099538Y0080540D03*
X0097418Y0075668D03*
X0093633Y0074635D03*
X0077954Y0088575D03*
X0072542Y0103075D03*
X0042452Y0090383D03*
X0042452Y0086446D03*
X0042452Y0082509D03*
X0042452Y0078572D03*
X0038515Y0078572D03*
X0038515Y0082509D03*
X0038515Y0086446D03*
X0038515Y0090383D03*
X0038515Y0074635D03*
X0042452Y0074635D03*
X0042452Y0070698D03*
X0038515Y0070698D03*
X0012523Y0053963D03*
X0008987Y0049044D03*
X0008987Y0045107D03*
X0008987Y0041170D03*
X0008987Y0037233D03*
X0008987Y0033296D03*
X0008987Y0029359D03*
X0008987Y0025422D03*
X0008987Y0021485D03*
X0012924Y0021485D03*
X0012924Y0025422D03*
X0012924Y0029359D03*
X0012924Y0033296D03*
X0012924Y0017548D03*
X0008987Y0009674D03*
X0008987Y0005737D03*
X0005050Y0005737D03*
X0005050Y0009674D03*
X0005050Y0013611D03*
X0012924Y0005737D03*
X0056231Y0033296D03*
X0060168Y0033296D03*
X0060168Y0037233D03*
X0056231Y0037233D03*
X0056231Y0041170D03*
X0060168Y0041170D03*
X0064105Y0037233D03*
X0071979Y0041170D03*
X0071979Y0045107D03*
X0071979Y0049044D03*
X0071979Y0052981D03*
X0075916Y0052981D03*
X0075916Y0049044D03*
X0075916Y0045107D03*
X0075916Y0041170D03*
X0088515Y0028769D03*
X0082019Y0022272D03*
X0096813Y0037910D03*
X0071979Y0056918D03*
X0060759Y0011643D03*
X0008987Y0074635D03*
X0008987Y0078572D03*
X0008987Y0082509D03*
X0008987Y0086446D03*
X0008987Y0090383D03*
X0008987Y0094320D03*
X0008987Y0098257D03*
X0008987Y0102194D03*
X0008987Y0106131D03*
X0008987Y0110068D03*
X0008987Y0114005D03*
X0008987Y0117942D03*
X0030641Y0137627D03*
X0034578Y0137627D03*
X0038515Y0137627D03*
X0042452Y0137627D03*
X0046389Y0137627D03*
X0038505Y0144438D03*
X0030641Y0141564D03*
X0062289Y0135091D03*
X0083790Y0159280D03*
X0089696Y0159280D03*
X0095601Y0159280D03*
X0095601Y0165186D03*
X0089696Y0165186D03*
X0083790Y0165186D03*
X0101507Y0165186D03*
X0107412Y0165186D03*
X0113318Y0165186D03*
X0119223Y0165186D03*
X0119223Y0159280D03*
X0113318Y0159280D03*
X0107806Y0152369D03*
X0125789Y0146070D03*
X0129029Y0162055D03*
X0143695Y0145757D03*
X0135455Y0124351D03*
X0132504Y0102695D03*
D36*
X0105672Y0033040D02*
X0106558Y0032154D01*
X0105672Y0033040D02*
X0102294Y0029662D01*
X0102294Y0025422D01*
X0094814Y0025422D02*
X0094814Y0029662D01*
X0088385Y0028898D02*
X0088385Y0032154D01*
X0087834Y0032706D01*
X0086152Y0032706D01*
X0082019Y0022272D02*
X0082019Y0013808D01*
X0082019Y0011643D01*
X0060759Y0011643D01*
X0146782Y0011643D02*
X0156428Y0021288D01*
X0047782Y0096293D02*
X0047782Y0101526D01*
X0047136Y0102172D01*
X0047136Y0105209D01*
X0047136Y0105868D02*
X0045995Y0107009D01*
X0045995Y0110068D01*
X0040877Y0109200D02*
X0039536Y0107859D01*
X0039536Y0106662D01*
X0038292Y0106662D01*
X0037249Y0107706D01*
X0034578Y0107706D01*
X0033003Y0096288D02*
X0030725Y0096288D01*
X0020483Y0096288D01*
X0020483Y0094044D01*
X0020483Y0090894D01*
X0020483Y0087745D01*
X0038121Y0096288D02*
X0040399Y0096288D01*
X0040886Y0096775D01*
X0040886Y0097209D01*
X0043336Y0097209D01*
D37*
X0046873Y0096506D02*
X0050071Y0096506D01*
X0050071Y0101780D01*
X0049852Y0101780D01*
X0048999Y0101645D01*
X0048177Y0101378D01*
X0047408Y0100986D01*
X0046709Y0100478D01*
X0046443Y0100213D01*
X0045709Y0100947D01*
X0041785Y0100947D01*
X0041785Y0101472D01*
X0041909Y0101472D01*
X0043073Y0102636D01*
X0043073Y0106309D01*
X0043078Y0106309D01*
X0043593Y0106823D01*
X0043798Y0106705D01*
X0043798Y0105209D01*
X0043798Y0103224D01*
X0043920Y0102770D01*
X0044156Y0102362D01*
X0044488Y0102029D01*
X0044896Y0101794D01*
X0045351Y0101672D01*
X0047136Y0101672D01*
X0048921Y0101672D01*
X0049376Y0101794D01*
X0049783Y0102029D01*
X0050116Y0102362D01*
X0050281Y0102647D01*
X0050818Y0102111D01*
X0051229Y0101699D01*
X0050716Y0101780D01*
X0050496Y0101780D01*
X0050496Y0096506D01*
X0050071Y0096506D01*
X0050071Y0096080D01*
X0046873Y0096080D01*
X0046873Y0096506D01*
X0046873Y0096199D02*
X0050071Y0096199D01*
X0050071Y0097772D02*
X0050496Y0097772D01*
X0050496Y0099345D02*
X0050071Y0099345D01*
X0050071Y0100919D02*
X0050496Y0100919D01*
X0050818Y0102111D02*
X0050818Y0102111D01*
X0050436Y0102492D02*
X0050191Y0102492D01*
X0047136Y0102492D02*
X0047136Y0102492D01*
X0047136Y0101672D02*
X0047136Y0105209D01*
X0047136Y0105209D01*
X0047136Y0101672D01*
X0047315Y0100919D02*
X0045737Y0100919D01*
X0044080Y0102492D02*
X0042929Y0102492D01*
X0043073Y0104065D02*
X0043798Y0104065D01*
X0043798Y0105209D02*
X0047136Y0105209D01*
X0047136Y0105209D01*
X0043798Y0105209D01*
X0043798Y0105639D02*
X0043073Y0105639D01*
X0047136Y0105639D02*
X0047136Y0105639D01*
X0047136Y0105210D02*
X0047136Y0106509D01*
X0047136Y0106509D01*
X0047136Y0105210D01*
X0047136Y0105210D01*
X0047136Y0104065D02*
X0047136Y0104065D01*
X0045563Y0093472D02*
X0041265Y0093472D01*
X0040322Y0092529D01*
X0037568Y0092529D01*
X0037568Y0074637D01*
X0037568Y0072742D01*
X0033800Y0068974D01*
X0034284Y0068974D01*
X0035455Y0068489D01*
X0036352Y0067592D01*
X0036837Y0066421D01*
X0036837Y0065153D01*
X0036352Y0063981D01*
X0035455Y0063085D01*
X0034284Y0062599D01*
X0033725Y0062599D01*
X0029576Y0058451D01*
X0028236Y0057111D01*
X0028176Y0057111D01*
X0028176Y0056249D01*
X0020483Y0056249D01*
X0020483Y0056249D01*
X0028176Y0056249D01*
X0028176Y0055226D01*
X0028109Y0054977D01*
X0028376Y0054710D01*
X0028376Y0051489D01*
X0028109Y0051222D01*
X0028176Y0050972D01*
X0028176Y0050922D01*
X0043372Y0066118D01*
X0043372Y0085001D01*
X0049269Y0090898D01*
X0048999Y0090941D01*
X0048177Y0091208D01*
X0047408Y0091600D01*
X0046709Y0092107D01*
X0046098Y0092718D01*
X0045591Y0093417D01*
X0045563Y0093472D01*
X0045856Y0093052D02*
X0040845Y0093052D01*
X0037568Y0091479D02*
X0047645Y0091479D01*
X0048277Y0089906D02*
X0037568Y0089906D01*
X0037568Y0088332D02*
X0046704Y0088332D01*
X0045131Y0086759D02*
X0037568Y0086759D01*
X0037568Y0085186D02*
X0043557Y0085186D01*
X0043372Y0083612D02*
X0037568Y0083612D01*
X0037568Y0082039D02*
X0043372Y0082039D01*
X0043372Y0080466D02*
X0037568Y0080466D01*
X0037568Y0078892D02*
X0043372Y0078892D01*
X0043372Y0077319D02*
X0037568Y0077319D01*
X0037568Y0075746D02*
X0043372Y0075746D01*
X0043372Y0074172D02*
X0037568Y0074172D01*
X0037425Y0072599D02*
X0043372Y0072599D01*
X0043372Y0071026D02*
X0035852Y0071026D01*
X0034278Y0069453D02*
X0043372Y0069453D01*
X0043372Y0067879D02*
X0036065Y0067879D01*
X0036837Y0066306D02*
X0043372Y0066306D01*
X0041986Y0064733D02*
X0036663Y0064733D01*
X0035530Y0063159D02*
X0040413Y0063159D01*
X0038840Y0061586D02*
X0032711Y0061586D01*
X0031138Y0060013D02*
X0037266Y0060013D01*
X0035693Y0058439D02*
X0029564Y0058439D01*
X0028176Y0056866D02*
X0034120Y0056866D01*
X0032546Y0055293D02*
X0028176Y0055293D01*
X0028376Y0053719D02*
X0030973Y0053719D01*
X0029400Y0052146D02*
X0028376Y0052146D01*
X0020483Y0049950D02*
X0020483Y0049950D01*
X0012790Y0049950D01*
X0012790Y0050589D01*
X0011852Y0050589D01*
X0010612Y0051102D01*
X0009662Y0052052D01*
X0009148Y0053292D01*
X0009148Y0054635D01*
X0009662Y0055875D01*
X0009945Y0056158D01*
X0009945Y0084341D01*
X0010338Y0085289D01*
X0010803Y0085754D01*
X0010803Y0138633D01*
X0011181Y0139548D01*
X0011881Y0140247D01*
X0012790Y0140624D01*
X0012790Y0141288D01*
X0020483Y0141288D01*
X0020483Y0141288D01*
X0020483Y0141288D01*
X0028176Y0141288D01*
X0028176Y0140265D01*
X0028109Y0140016D01*
X0028376Y0139749D01*
X0028376Y0134127D01*
X0055729Y0134127D01*
X0051709Y0138147D01*
X0051122Y0138147D01*
X0049951Y0138632D01*
X0049054Y0139529D01*
X0048569Y0140700D01*
X0048569Y0141925D01*
X0040765Y0141925D01*
X0040417Y0141577D01*
X0039177Y0141063D01*
X0037834Y0141063D01*
X0036594Y0141577D01*
X0035644Y0142526D01*
X0035130Y0143766D01*
X0035130Y0144850D01*
X0030936Y0144850D01*
X0028236Y0142150D01*
X0028176Y0142150D01*
X0028176Y0141288D01*
X0020483Y0141288D01*
X0012790Y0141288D01*
X0012790Y0142311D01*
X0012857Y0142560D01*
X0012590Y0142827D01*
X0012590Y0152348D01*
X0013754Y0153512D01*
X0027212Y0153512D01*
X0027699Y0153024D01*
X0036524Y0153024D01*
X0036406Y0153143D01*
X0036027Y0154057D01*
X0036027Y0155849D01*
X0035689Y0155989D01*
X0034286Y0157392D01*
X0033527Y0159225D01*
X0033527Y0167209D01*
X0034149Y0168710D01*
X0032617Y0168710D01*
X0032951Y0168055D01*
X0033184Y0167338D01*
X0033302Y0166594D01*
X0033302Y0163430D01*
X0028727Y0163430D01*
X0028727Y0163005D01*
X0033302Y0163005D01*
X0033302Y0159841D01*
X0033184Y0159096D01*
X0032951Y0158380D01*
X0032609Y0157708D01*
X0032166Y0157099D01*
X0031633Y0156566D01*
X0031024Y0156123D01*
X0030352Y0155781D01*
X0029636Y0155548D01*
X0028891Y0155430D01*
X0028727Y0155430D01*
X0028727Y0163005D01*
X0028302Y0163005D01*
X0023727Y0163005D01*
X0023727Y0159841D01*
X0023845Y0159096D01*
X0024078Y0158380D01*
X0024420Y0157708D01*
X0024863Y0157099D01*
X0025396Y0156566D01*
X0026005Y0156123D01*
X0026677Y0155781D01*
X0027394Y0155548D01*
X0028138Y0155430D01*
X0028302Y0155430D01*
X0028302Y0163005D01*
X0028302Y0163430D01*
X0023727Y0163430D01*
X0023727Y0166594D01*
X0023845Y0167338D01*
X0024078Y0168055D01*
X0024412Y0168710D01*
X0022880Y0168710D01*
X0023502Y0167209D01*
X0023502Y0159225D01*
X0022743Y0157392D01*
X0021340Y0155989D01*
X0019507Y0155230D01*
X0017523Y0155230D01*
X0015689Y0155989D01*
X0014286Y0157392D01*
X0013527Y0159225D01*
X0013527Y0167209D01*
X0014149Y0168710D01*
X0012617Y0168710D01*
X0012951Y0168055D01*
X0013184Y0167338D01*
X0013302Y0166594D01*
X0013302Y0163430D01*
X0008727Y0163430D01*
X0008727Y0163005D01*
X0013302Y0163005D01*
X0013302Y0159841D01*
X0013184Y0159096D01*
X0012951Y0158380D01*
X0012609Y0157708D01*
X0012166Y0157099D01*
X0011633Y0156566D01*
X0011024Y0156123D01*
X0010352Y0155781D01*
X0009636Y0155548D01*
X0008891Y0155430D01*
X0008727Y0155430D01*
X0008727Y0163005D01*
X0008302Y0163005D01*
X0008302Y0155430D01*
X0008138Y0155430D01*
X0007394Y0155548D01*
X0006677Y0155781D01*
X0006005Y0156123D01*
X0005396Y0156566D01*
X0004863Y0157099D01*
X0004420Y0157708D01*
X0004078Y0158380D01*
X0004066Y0158417D01*
X0004066Y0004753D01*
X0176310Y0004753D01*
X0176310Y0064773D01*
X0171746Y0064773D01*
X0170582Y0065937D01*
X0170582Y0068380D01*
X0168386Y0070576D01*
X0168007Y0071490D01*
X0168007Y0084578D01*
X0168386Y0085492D01*
X0169086Y0086192D01*
X0170158Y0087264D01*
X0170857Y0087964D01*
X0171772Y0088343D01*
X0171853Y0088343D01*
X0172081Y0088571D01*
X0171888Y0088905D01*
X0171767Y0089360D01*
X0171767Y0090973D01*
X0175325Y0090973D01*
X0175325Y0090973D01*
X0171767Y0090973D01*
X0171767Y0092586D01*
X0171888Y0093041D01*
X0172124Y0093449D01*
X0172456Y0093781D01*
X0172864Y0094017D01*
X0173319Y0094139D01*
X0175326Y0094139D01*
X0175326Y0090973D01*
X0175326Y0090973D01*
X0175326Y0094139D01*
X0176310Y0094139D01*
X0176310Y0102489D01*
X0176113Y0102489D01*
X0171176Y0102489D01*
X0171176Y0099990D01*
X0171298Y0099535D01*
X0171533Y0099128D01*
X0171866Y0098795D01*
X0172273Y0098560D01*
X0172728Y0098438D01*
X0176113Y0098438D01*
X0176113Y0102489D01*
X0176113Y0103867D01*
X0176113Y0107918D01*
X0172728Y0107918D01*
X0172273Y0107796D01*
X0171866Y0107561D01*
X0171533Y0107228D01*
X0171298Y0106821D01*
X0171176Y0106366D01*
X0171176Y0103867D01*
X0176113Y0103867D01*
X0176310Y0103867D01*
X0176310Y0108493D01*
X0179441Y0108493D01*
X0179441Y0111546D01*
X0176822Y0114165D01*
X0176793Y0114194D01*
X0176793Y0119945D01*
X0174341Y0122397D01*
X0174313Y0122425D01*
X0174313Y0130829D01*
X0178156Y0134672D01*
X0178156Y0135259D01*
X0178642Y0136430D01*
X0179538Y0137327D01*
X0180710Y0137812D01*
X0181015Y0137812D01*
X0181015Y0139094D01*
X0178947Y0139094D01*
X0178947Y0138081D01*
X0178433Y0136840D01*
X0177484Y0135891D01*
X0176244Y0135377D01*
X0175715Y0135377D01*
X0159430Y0119092D01*
X0158730Y0118392D01*
X0157816Y0118013D01*
X0146121Y0118013D01*
X0146050Y0117942D01*
X0146407Y0117584D01*
X0146407Y0113182D01*
X0145243Y0112017D01*
X0144936Y0112017D01*
X0144936Y0111071D01*
X0145243Y0111071D01*
X0146407Y0109907D01*
X0146407Y0105504D01*
X0145893Y0104990D01*
X0146086Y0104655D01*
X0146207Y0104201D01*
X0146207Y0102587D01*
X0142649Y0102587D01*
X0142649Y0102587D01*
X0142648Y0102587D02*
X0142648Y0099422D01*
X0142648Y0102587D01*
X0142648Y0102587D01*
X0139089Y0102587D01*
X0139089Y0100974D01*
X0139211Y0100520D01*
X0139446Y0100112D01*
X0139779Y0099779D01*
X0140187Y0099544D01*
X0140641Y0099422D01*
X0142648Y0099422D01*
X0142948Y0099422D01*
X0142121Y0097424D01*
X0142121Y0095162D01*
X0142508Y0094227D01*
X0138781Y0090500D01*
X0138781Y0037152D01*
X0127741Y0026112D01*
X0127741Y0041317D01*
X0127217Y0041841D01*
X0125877Y0043181D01*
X0120026Y0043181D01*
X0120026Y0045107D01*
X0116861Y0045107D01*
X0116861Y0045107D01*
X0120026Y0045107D01*
X0120026Y0047114D01*
X0119905Y0047568D01*
X0120026Y0048021D01*
X0120026Y0050028D01*
X0116861Y0050028D01*
X0116861Y0050028D01*
X0116861Y0045107D01*
X0116861Y0045107D01*
X0116861Y0048666D01*
X0116861Y0050028D01*
X0116861Y0050028D01*
X0120026Y0050028D01*
X0120026Y0052035D01*
X0119905Y0052490D01*
X0119669Y0052897D01*
X0119336Y0053230D01*
X0118929Y0053466D01*
X0118474Y0053587D01*
X0116861Y0053587D01*
X0115248Y0053587D01*
X0114793Y0053466D01*
X0114459Y0053273D01*
X0113944Y0053787D01*
X0109542Y0053787D01*
X0108378Y0052623D01*
X0108378Y0042587D01*
X0107022Y0042587D01*
X0105858Y0041422D01*
X0105858Y0032729D01*
X0106058Y0032529D01*
X0106058Y0032154D01*
X0106058Y0031348D01*
X0106180Y0030894D01*
X0106415Y0030486D01*
X0106748Y0030153D01*
X0107155Y0029918D01*
X0107610Y0029796D01*
X0109617Y0029796D01*
X0111624Y0029796D01*
X0112078Y0029918D01*
X0112486Y0030153D01*
X0112549Y0030216D01*
X0113889Y0028876D01*
X0113889Y0023669D01*
X0106641Y0023669D01*
X0106641Y0024930D01*
X0102786Y0024930D01*
X0102786Y0025914D01*
X0101802Y0025914D01*
X0101802Y0030162D01*
X0099500Y0030162D01*
X0099045Y0030040D01*
X0098711Y0029847D01*
X0098325Y0030233D01*
X0098325Y0032667D01*
X0098130Y0033139D01*
X0098325Y0033610D01*
X0098325Y0034883D01*
X0098724Y0035049D01*
X0099674Y0035998D01*
X0100188Y0037239D01*
X0100188Y0038581D01*
X0100047Y0038921D01*
X0100688Y0038921D01*
X0101636Y0039314D01*
X0103670Y0041348D01*
X0105283Y0041348D01*
X0106447Y0042512D01*
X0106447Y0047702D01*
X0105283Y0048866D01*
X0100880Y0048866D01*
X0100522Y0048508D01*
X0100165Y0048866D01*
X0099881Y0048866D01*
X0100201Y0049186D01*
X0100256Y0049186D01*
X0100571Y0049501D01*
X0101596Y0050526D01*
X0121662Y0070592D01*
X0121978Y0070907D01*
X0121978Y0109316D01*
X0123714Y0109316D01*
X0124126Y0108904D01*
X0124126Y0103339D01*
X0125290Y0102175D01*
X0129129Y0102175D01*
X0129129Y0102024D01*
X0129251Y0101729D01*
X0128723Y0101645D01*
X0127902Y0101378D01*
X0127132Y0100986D01*
X0126433Y0100478D01*
X0125823Y0099868D01*
X0125315Y0099169D01*
X0124923Y0098399D01*
X0124656Y0097578D01*
X0124521Y0096725D01*
X0124521Y0096506D01*
X0129796Y0096506D01*
X0129796Y0096080D01*
X0130221Y0096080D01*
X0130221Y0090806D01*
X0130440Y0090806D01*
X0131293Y0090941D01*
X0132115Y0091208D01*
X0132884Y0091600D01*
X0133583Y0092107D01*
X0134194Y0092718D01*
X0134702Y0093417D01*
X0135094Y0094186D01*
X0135361Y0095008D01*
X0135496Y0095861D01*
X0135496Y0096080D01*
X0130221Y0096080D01*
X0130221Y0096506D01*
X0135496Y0096506D01*
X0135496Y0096725D01*
X0135361Y0097578D01*
X0135094Y0098399D01*
X0134702Y0099169D01*
X0134264Y0099772D01*
X0134416Y0099834D01*
X0135365Y0100784D01*
X0135879Y0102024D01*
X0135879Y0103243D01*
X0135974Y0103339D01*
X0135974Y0104381D01*
X0136114Y0104343D01*
X0138121Y0104343D01*
X0139128Y0104343D01*
X0139089Y0104201D01*
X0139089Y0102587D01*
X0142648Y0102587D01*
X0142648Y0102587D01*
X0142649Y0102587D02*
X0146207Y0102587D01*
X0146207Y0101786D01*
X0146677Y0101980D01*
X0148940Y0101980D01*
X0151030Y0101114D01*
X0152630Y0099515D01*
X0153496Y0097424D01*
X0153496Y0095162D01*
X0152630Y0093071D01*
X0151030Y0091471D01*
X0148940Y0090606D01*
X0146677Y0090606D01*
X0145743Y0090992D01*
X0143356Y0088606D01*
X0143356Y0074284D01*
X0144587Y0075514D01*
X0146677Y0076380D01*
X0148940Y0076380D01*
X0151030Y0075514D01*
X0152630Y0073915D01*
X0153496Y0071824D01*
X0153496Y0069562D01*
X0152630Y0067471D01*
X0151030Y0065871D01*
X0148940Y0065006D01*
X0146677Y0065006D01*
X0144587Y0065871D01*
X0143356Y0067102D01*
X0143356Y0035257D01*
X0142016Y0033917D01*
X0125976Y0017878D01*
X0089970Y0017878D01*
X0088630Y0019217D01*
X0085393Y0022454D01*
X0085393Y0021601D01*
X0084880Y0020361D01*
X0084806Y0020287D01*
X0084806Y0014417D01*
X0145615Y0014417D01*
X0153053Y0021855D01*
X0153053Y0021959D01*
X0153567Y0023200D01*
X0154516Y0024149D01*
X0155757Y0024663D01*
X0157099Y0024663D01*
X0158340Y0024149D01*
X0159289Y0023200D01*
X0159803Y0021959D01*
X0159803Y0020617D01*
X0159289Y0019377D01*
X0158340Y0018427D01*
X0157099Y0017913D01*
X0156995Y0017913D01*
X0148361Y0009279D01*
X0147337Y0008855D01*
X0146228Y0008855D01*
X0146197Y0008868D01*
X0082603Y0008868D01*
X0082573Y0008855D01*
X0062744Y0008855D01*
X0062670Y0008781D01*
X0061430Y0008268D01*
X0060087Y0008268D01*
X0058847Y0008781D01*
X0057898Y0009731D01*
X0057384Y0010971D01*
X0057384Y0012314D01*
X0057898Y0013554D01*
X0058847Y0014504D01*
X0060087Y0015017D01*
X0061430Y0015017D01*
X0062670Y0014504D01*
X0062744Y0014430D01*
X0079231Y0014430D01*
X0079231Y0020287D01*
X0079157Y0020361D01*
X0078644Y0021601D01*
X0078644Y0022944D01*
X0079157Y0024184D01*
X0080107Y0025133D01*
X0081347Y0025647D01*
X0082200Y0025647D01*
X0076631Y0031216D01*
X0076631Y0064928D01*
X0041353Y0029650D01*
X0041353Y0020464D01*
X0041768Y0020049D01*
X0042253Y0018877D01*
X0042253Y0017609D01*
X0041768Y0016438D01*
X0040871Y0015541D01*
X0039700Y0015056D01*
X0038432Y0015056D01*
X0037260Y0015541D01*
X0036364Y0016438D01*
X0035878Y0017609D01*
X0035878Y0018877D01*
X0036364Y0020049D01*
X0036778Y0020464D01*
X0036778Y0031545D01*
X0038118Y0032885D01*
X0070963Y0065729D01*
X0069215Y0065006D01*
X0066953Y0065006D01*
X0064862Y0065871D01*
X0063262Y0067471D01*
X0062773Y0068653D01*
X0030524Y0036404D01*
X0029184Y0035064D01*
X0027699Y0035064D01*
X0027212Y0034576D01*
X0013754Y0034576D01*
X0012590Y0035741D01*
X0012590Y0048411D01*
X0012857Y0048677D01*
X0012790Y0048927D01*
X0012790Y0049950D01*
X0020483Y0049950D01*
X0012790Y0050573D02*
X0004066Y0050573D01*
X0004066Y0052146D02*
X0009623Y0052146D01*
X0009148Y0053719D02*
X0004066Y0053719D01*
X0004066Y0055293D02*
X0009421Y0055293D01*
X0009945Y0056866D02*
X0004066Y0056866D01*
X0004066Y0058439D02*
X0009945Y0058439D01*
X0009945Y0060013D02*
X0004066Y0060013D01*
X0004066Y0061586D02*
X0009945Y0061586D01*
X0009945Y0063159D02*
X0004066Y0063159D01*
X0004066Y0064733D02*
X0009945Y0064733D01*
X0009945Y0066306D02*
X0004066Y0066306D01*
X0004066Y0067879D02*
X0009945Y0067879D01*
X0009945Y0069453D02*
X0004066Y0069453D01*
X0004066Y0071026D02*
X0009945Y0071026D01*
X0009945Y0072599D02*
X0004066Y0072599D01*
X0004066Y0074172D02*
X0009945Y0074172D01*
X0009945Y0075746D02*
X0004066Y0075746D01*
X0004066Y0077319D02*
X0009945Y0077319D01*
X0009945Y0078892D02*
X0004066Y0078892D01*
X0004066Y0080466D02*
X0009945Y0080466D01*
X0009945Y0082039D02*
X0004066Y0082039D01*
X0004066Y0083612D02*
X0009945Y0083612D01*
X0010295Y0085186D02*
X0004066Y0085186D01*
X0004066Y0086759D02*
X0010803Y0086759D01*
X0010803Y0088332D02*
X0004066Y0088332D01*
X0004066Y0089906D02*
X0010803Y0089906D01*
X0010803Y0091479D02*
X0004066Y0091479D01*
X0004066Y0093052D02*
X0010803Y0093052D01*
X0010803Y0094626D02*
X0004066Y0094626D01*
X0004066Y0096199D02*
X0010803Y0096199D01*
X0010803Y0097772D02*
X0004066Y0097772D01*
X0004066Y0099345D02*
X0010803Y0099345D01*
X0010803Y0100919D02*
X0004066Y0100919D01*
X0004066Y0102492D02*
X0010803Y0102492D01*
X0010803Y0104065D02*
X0004066Y0104065D01*
X0004066Y0105639D02*
X0010803Y0105639D01*
X0010803Y0107212D02*
X0004066Y0107212D01*
X0004066Y0108785D02*
X0010803Y0108785D01*
X0010803Y0110359D02*
X0004066Y0110359D01*
X0004066Y0111932D02*
X0010803Y0111932D01*
X0010803Y0113505D02*
X0004066Y0113505D01*
X0004066Y0115079D02*
X0010803Y0115079D01*
X0010803Y0116652D02*
X0004066Y0116652D01*
X0004066Y0118225D02*
X0010803Y0118225D01*
X0010803Y0119799D02*
X0004066Y0119799D01*
X0004066Y0121372D02*
X0010803Y0121372D01*
X0010803Y0122945D02*
X0004066Y0122945D01*
X0004066Y0124519D02*
X0010803Y0124519D01*
X0010803Y0126092D02*
X0004066Y0126092D01*
X0004066Y0127665D02*
X0010803Y0127665D01*
X0010803Y0129238D02*
X0004066Y0129238D01*
X0004066Y0130812D02*
X0010803Y0130812D01*
X0010803Y0132385D02*
X0004066Y0132385D01*
X0004066Y0133958D02*
X0010803Y0133958D01*
X0010803Y0135532D02*
X0004066Y0135532D01*
X0004066Y0137105D02*
X0010803Y0137105D01*
X0010821Y0138678D02*
X0004066Y0138678D01*
X0004066Y0140252D02*
X0011892Y0140252D01*
X0012790Y0141825D02*
X0004066Y0141825D01*
X0004066Y0143398D02*
X0012590Y0143398D01*
X0012590Y0144972D02*
X0004066Y0144972D01*
X0004066Y0146545D02*
X0012590Y0146545D01*
X0012590Y0148118D02*
X0004066Y0148118D01*
X0004066Y0149692D02*
X0012590Y0149692D01*
X0012590Y0151265D02*
X0004066Y0151265D01*
X0004066Y0152838D02*
X0013081Y0152838D01*
X0010753Y0155985D02*
X0015700Y0155985D01*
X0014218Y0157558D02*
X0012500Y0157558D01*
X0013190Y0159131D02*
X0013566Y0159131D01*
X0013527Y0160705D02*
X0013302Y0160705D01*
X0013302Y0162278D02*
X0013527Y0162278D01*
X0013527Y0163851D02*
X0013302Y0163851D01*
X0013302Y0165425D02*
X0013527Y0165425D01*
X0013527Y0166998D02*
X0013238Y0166998D01*
X0012688Y0168571D02*
X0014091Y0168571D01*
X0008727Y0162278D02*
X0008302Y0162278D01*
X0008302Y0160705D02*
X0008727Y0160705D01*
X0008727Y0159131D02*
X0008302Y0159131D01*
X0008302Y0157558D02*
X0008727Y0157558D01*
X0008727Y0155985D02*
X0008302Y0155985D01*
X0006276Y0155985D02*
X0004066Y0155985D01*
X0004066Y0157558D02*
X0004529Y0157558D01*
X0004066Y0154412D02*
X0036027Y0154412D01*
X0035700Y0155985D02*
X0030753Y0155985D01*
X0028727Y0155985D02*
X0028302Y0155985D01*
X0028302Y0157558D02*
X0028727Y0157558D01*
X0028727Y0159131D02*
X0028302Y0159131D01*
X0028302Y0160705D02*
X0028727Y0160705D01*
X0028727Y0162278D02*
X0028302Y0162278D01*
X0033302Y0162278D02*
X0033527Y0162278D01*
X0033527Y0160705D02*
X0033302Y0160705D01*
X0033190Y0159131D02*
X0033566Y0159131D01*
X0034218Y0157558D02*
X0032500Y0157558D01*
X0026276Y0155985D02*
X0021329Y0155985D01*
X0022811Y0157558D02*
X0024529Y0157558D01*
X0023839Y0159131D02*
X0023463Y0159131D01*
X0023502Y0160705D02*
X0023727Y0160705D01*
X0023727Y0162278D02*
X0023502Y0162278D01*
X0023502Y0163851D02*
X0023727Y0163851D01*
X0023727Y0165425D02*
X0023502Y0165425D01*
X0023502Y0166998D02*
X0023791Y0166998D01*
X0024341Y0168571D02*
X0022938Y0168571D01*
X0032688Y0168571D02*
X0034091Y0168571D01*
X0033527Y0166998D02*
X0033238Y0166998D01*
X0033302Y0165425D02*
X0033527Y0165425D01*
X0033527Y0163851D02*
X0033302Y0163851D01*
X0035283Y0143398D02*
X0029484Y0143398D01*
X0028176Y0141825D02*
X0036345Y0141825D01*
X0040665Y0141825D02*
X0048569Y0141825D01*
X0048755Y0140252D02*
X0028172Y0140252D01*
X0028376Y0138678D02*
X0049905Y0138678D01*
X0052751Y0137105D02*
X0028376Y0137105D01*
X0028376Y0135532D02*
X0054324Y0135532D01*
X0057647Y0138678D02*
X0062315Y0138678D01*
X0062315Y0137105D02*
X0059220Y0137105D01*
X0060794Y0135532D02*
X0062515Y0135532D01*
X0062515Y0135697D02*
X0062515Y0134084D01*
X0066073Y0134084D01*
X0066073Y0134083D01*
X0062515Y0134083D01*
X0062515Y0133811D01*
X0054944Y0141382D01*
X0054944Y0141925D01*
X0062498Y0141925D01*
X0062667Y0141756D01*
X0062315Y0141403D01*
X0062315Y0137000D01*
X0062829Y0136486D01*
X0062636Y0136151D01*
X0062515Y0135697D01*
X0062515Y0133958D02*
X0062367Y0133958D01*
X0062315Y0140252D02*
X0056074Y0140252D01*
X0054944Y0141825D02*
X0062598Y0141825D01*
X0072390Y0157039D02*
X0072743Y0157392D01*
X0073502Y0159225D01*
X0073502Y0164970D01*
X0074838Y0166306D01*
X0129105Y0166306D01*
X0129105Y0165430D01*
X0128358Y0165430D01*
X0127117Y0164916D01*
X0126168Y0163966D01*
X0125654Y0162726D01*
X0125654Y0162198D01*
X0117457Y0154000D01*
X0113954Y0154000D01*
X0109627Y0158327D01*
X0108928Y0159027D01*
X0108013Y0159405D01*
X0103995Y0159405D01*
X0103117Y0160283D01*
X0097928Y0160283D01*
X0097050Y0159405D01*
X0096969Y0159405D01*
X0096054Y0159027D01*
X0094067Y0157039D01*
X0072390Y0157039D01*
X0072811Y0157558D02*
X0094586Y0157558D01*
X0096307Y0159131D02*
X0073463Y0159131D01*
X0073502Y0160705D02*
X0124161Y0160705D01*
X0125654Y0162278D02*
X0073502Y0162278D01*
X0073502Y0163851D02*
X0126120Y0163851D01*
X0128346Y0165425D02*
X0073957Y0165425D01*
X0103924Y0154359D02*
X0103995Y0154431D01*
X0106488Y0154431D01*
X0108906Y0152013D01*
X0107806Y0152013D01*
X0107806Y0148454D01*
X0107806Y0148454D01*
X0107806Y0152013D01*
X0106193Y0152013D01*
X0105738Y0151891D01*
X0105330Y0151655D01*
X0104998Y0151323D01*
X0104762Y0150915D01*
X0104641Y0150461D01*
X0104641Y0148454D01*
X0107806Y0148454D01*
X0107806Y0148453D01*
X0104641Y0148453D01*
X0104641Y0147055D01*
X0103361Y0147055D01*
X0103361Y0148678D01*
X0104281Y0149599D01*
X0104281Y0154001D01*
X0103924Y0154359D01*
X0103976Y0154412D02*
X0106507Y0154412D01*
X0108081Y0152838D02*
X0104281Y0152838D01*
X0104281Y0151265D02*
X0104964Y0151265D01*
X0104641Y0149692D02*
X0104281Y0149692D01*
X0104641Y0148118D02*
X0103361Y0148118D01*
X0107806Y0149692D02*
X0107806Y0149692D01*
X0107806Y0151265D02*
X0107806Y0151265D01*
X0111970Y0155985D02*
X0119441Y0155985D01*
X0117868Y0154412D02*
X0113543Y0154412D01*
X0110396Y0157558D02*
X0121015Y0157558D01*
X0122588Y0159131D02*
X0108675Y0159131D01*
X0123460Y0144335D02*
X0136823Y0157699D01*
X0136843Y0157719D01*
X0137392Y0157719D01*
X0137392Y0163506D01*
X0137393Y0163506D01*
X0137393Y0163506D01*
X0142392Y0163506D01*
X0142392Y0163506D01*
X0142393Y0163506D01*
X0142393Y0157719D01*
X0143928Y0157719D01*
X0144382Y0157841D01*
X0144741Y0158048D01*
X0144899Y0157889D01*
X0145207Y0157146D01*
X0148295Y0154058D01*
X0149243Y0153665D01*
X0151488Y0153665D01*
X0151488Y0152158D01*
X0152239Y0151406D01*
X0151488Y0150655D01*
X0151488Y0149147D01*
X0149243Y0149147D01*
X0148295Y0148755D01*
X0146747Y0147207D01*
X0146556Y0147668D01*
X0145606Y0148618D01*
X0144366Y0149132D01*
X0143023Y0149132D01*
X0141783Y0148618D01*
X0140834Y0147668D01*
X0140320Y0146428D01*
X0140320Y0146039D01*
X0140284Y0146003D01*
X0139905Y0145089D01*
X0139905Y0144930D01*
X0139741Y0144765D01*
X0139382Y0144972D01*
X0138928Y0145094D01*
X0137393Y0145094D01*
X0137393Y0139306D01*
X0137392Y0139306D01*
X0137392Y0145094D01*
X0135857Y0145094D01*
X0135403Y0144972D01*
X0135044Y0144765D01*
X0134516Y0145294D01*
X0130269Y0145294D01*
X0129105Y0144130D01*
X0129105Y0141884D01*
X0128348Y0141884D01*
X0127401Y0141492D01*
X0126621Y0140712D01*
X0126033Y0140124D01*
X0125735Y0140421D01*
X0125735Y0141170D01*
X0122176Y0141170D01*
X0122176Y0141170D01*
X0125735Y0141170D01*
X0125735Y0142783D01*
X0125613Y0143238D01*
X0125378Y0143646D01*
X0125045Y0143978D01*
X0124638Y0144214D01*
X0124183Y0144335D01*
X0123460Y0144335D01*
X0124096Y0144972D02*
X0129947Y0144972D01*
X0129105Y0143398D02*
X0125521Y0143398D01*
X0125735Y0141825D02*
X0128205Y0141825D01*
X0126621Y0140712D02*
X0126621Y0140712D01*
X0126161Y0140252D02*
X0125905Y0140252D01*
X0125670Y0146545D02*
X0140368Y0146545D01*
X0139905Y0144972D02*
X0139383Y0144972D01*
X0137393Y0144972D02*
X0137392Y0144972D01*
X0137392Y0143398D02*
X0137393Y0143398D01*
X0137392Y0141825D02*
X0137393Y0141825D01*
X0137392Y0140252D02*
X0137393Y0140252D01*
X0135402Y0144972D02*
X0134838Y0144972D01*
X0141284Y0148118D02*
X0127243Y0148118D01*
X0128816Y0149692D02*
X0151488Y0149692D01*
X0152098Y0151265D02*
X0130389Y0151265D01*
X0131963Y0152838D02*
X0151488Y0152838D01*
X0147941Y0154412D02*
X0133536Y0154412D01*
X0135109Y0155985D02*
X0146368Y0155985D01*
X0145036Y0157558D02*
X0136683Y0157558D01*
X0137393Y0157719D02*
X0138928Y0157719D01*
X0139382Y0157841D01*
X0139790Y0158076D01*
X0139893Y0158179D01*
X0139995Y0158076D01*
X0140403Y0157841D01*
X0140857Y0157719D01*
X0142392Y0157719D01*
X0142392Y0163506D01*
X0140480Y0163506D01*
X0137393Y0163506D01*
X0137393Y0157719D01*
X0137392Y0159131D02*
X0137393Y0159131D01*
X0137392Y0160705D02*
X0137393Y0160705D01*
X0137392Y0162278D02*
X0137393Y0162278D01*
X0142392Y0162278D02*
X0142393Y0162278D01*
X0142392Y0163506D02*
X0142392Y0168710D01*
X0142393Y0168710D01*
X0142393Y0163506D01*
X0142392Y0163506D01*
X0142392Y0163851D02*
X0142393Y0163851D01*
X0142392Y0165425D02*
X0142393Y0165425D01*
X0142392Y0166998D02*
X0142393Y0166998D01*
X0142392Y0168571D02*
X0142393Y0168571D01*
X0142392Y0160705D02*
X0142393Y0160705D01*
X0142392Y0159131D02*
X0142393Y0159131D01*
X0146106Y0148118D02*
X0147659Y0148118D01*
X0134168Y0133319D02*
X0133050Y0133319D01*
X0133050Y0132901D01*
X0133050Y0131944D01*
X0133050Y0131944D01*
X0133050Y0130983D01*
X0134168Y0130983D01*
X0134168Y0131721D01*
X0137333Y0131721D01*
X0137333Y0131721D01*
X0134168Y0131721D01*
X0134168Y0133319D01*
X0134168Y0132385D02*
X0133050Y0132385D01*
X0146407Y0116652D02*
X0176793Y0116652D01*
X0176793Y0118225D02*
X0158327Y0118225D01*
X0160137Y0119799D02*
X0176793Y0119799D01*
X0175366Y0121372D02*
X0161710Y0121372D01*
X0163283Y0122945D02*
X0174313Y0122945D01*
X0174313Y0124519D02*
X0164857Y0124519D01*
X0166430Y0126092D02*
X0174313Y0126092D01*
X0174313Y0127665D02*
X0168003Y0127665D01*
X0169577Y0129238D02*
X0174313Y0129238D01*
X0174313Y0130812D02*
X0171150Y0130812D01*
X0172723Y0132385D02*
X0175869Y0132385D01*
X0174296Y0133958D02*
X0177442Y0133958D01*
X0176617Y0135532D02*
X0178269Y0135532D01*
X0178543Y0137105D02*
X0179316Y0137105D01*
X0178947Y0138678D02*
X0181015Y0138678D01*
X0181215Y0131262D02*
X0181215Y0130600D01*
X0181337Y0130146D01*
X0181572Y0129738D01*
X0181739Y0129572D01*
X0180050Y0129572D01*
X0180050Y0126013D01*
X0179656Y0126013D01*
X0179656Y0129572D01*
X0179525Y0129572D01*
X0181215Y0131262D01*
X0181215Y0130812D02*
X0180766Y0130812D01*
X0180050Y0129238D02*
X0179656Y0129238D01*
X0179656Y0127665D02*
X0180050Y0127665D01*
X0180050Y0126092D02*
X0179656Y0126092D01*
X0181148Y0122060D02*
X0182254Y0122060D01*
X0182708Y0122182D01*
X0183043Y0122375D01*
X0183557Y0121860D01*
X0184144Y0121860D01*
X0184437Y0121151D01*
X0185137Y0120451D01*
X0185661Y0120234D01*
X0185661Y0120172D01*
X0186175Y0118932D01*
X0186548Y0118558D01*
X0186548Y0109855D01*
X0186220Y0109527D01*
X0185520Y0108827D01*
X0185382Y0108493D01*
X0184015Y0108493D01*
X0184015Y0113441D01*
X0181368Y0116089D01*
X0181368Y0121840D01*
X0181148Y0122060D01*
X0181368Y0121372D02*
X0184346Y0121372D01*
X0185815Y0119799D02*
X0181368Y0119799D01*
X0181368Y0118225D02*
X0186548Y0118225D01*
X0186548Y0116652D02*
X0181368Y0116652D01*
X0182378Y0115079D02*
X0186548Y0115079D01*
X0186548Y0113505D02*
X0183951Y0113505D01*
X0184015Y0111932D02*
X0186548Y0111932D01*
X0186548Y0110359D02*
X0184015Y0110359D01*
X0184015Y0108785D02*
X0185503Y0108785D01*
X0179441Y0108785D02*
X0146407Y0108785D01*
X0146407Y0107212D02*
X0171524Y0107212D01*
X0171176Y0105639D02*
X0146407Y0105639D01*
X0146207Y0104065D02*
X0171176Y0104065D01*
X0171176Y0100919D02*
X0151226Y0100919D01*
X0152700Y0099345D02*
X0171407Y0099345D01*
X0176113Y0099345D02*
X0176310Y0099345D01*
X0176310Y0097772D02*
X0153352Y0097772D01*
X0153496Y0096199D02*
X0176310Y0096199D01*
X0176310Y0094626D02*
X0153274Y0094626D01*
X0152611Y0093052D02*
X0171895Y0093052D01*
X0171767Y0091479D02*
X0151037Y0091479D01*
X0144656Y0089906D02*
X0171767Y0089906D01*
X0171747Y0088332D02*
X0143356Y0088332D01*
X0143356Y0086759D02*
X0169653Y0086759D01*
X0168259Y0085186D02*
X0143356Y0085186D01*
X0143356Y0083612D02*
X0168007Y0083612D01*
X0168007Y0082039D02*
X0143356Y0082039D01*
X0143356Y0080466D02*
X0168007Y0080466D01*
X0168007Y0078892D02*
X0143356Y0078892D01*
X0143356Y0077319D02*
X0168007Y0077319D01*
X0168007Y0075746D02*
X0150471Y0075746D01*
X0152372Y0074172D02*
X0168007Y0074172D01*
X0168007Y0072599D02*
X0153175Y0072599D01*
X0153496Y0071026D02*
X0168200Y0071026D01*
X0169510Y0069453D02*
X0153450Y0069453D01*
X0152799Y0067879D02*
X0170582Y0067879D01*
X0170582Y0066306D02*
X0151464Y0066306D01*
X0144152Y0066306D02*
X0143356Y0066306D01*
X0143356Y0064733D02*
X0176310Y0064733D01*
X0176310Y0063159D02*
X0143356Y0063159D01*
X0143356Y0061586D02*
X0176310Y0061586D01*
X0176310Y0060013D02*
X0143356Y0060013D01*
X0143356Y0058439D02*
X0176310Y0058439D01*
X0176310Y0056866D02*
X0143356Y0056866D01*
X0143356Y0055293D02*
X0176310Y0055293D01*
X0176310Y0053719D02*
X0143356Y0053719D01*
X0143356Y0052146D02*
X0176310Y0052146D01*
X0176310Y0050573D02*
X0143356Y0050573D01*
X0143356Y0048999D02*
X0176310Y0048999D01*
X0176310Y0047426D02*
X0143356Y0047426D01*
X0143356Y0045853D02*
X0176310Y0045853D01*
X0176310Y0044279D02*
X0143356Y0044279D01*
X0143356Y0042706D02*
X0176310Y0042706D01*
X0176310Y0041133D02*
X0143356Y0041133D01*
X0143356Y0039560D02*
X0176310Y0039560D01*
X0176310Y0037986D02*
X0143356Y0037986D01*
X0143356Y0036413D02*
X0176310Y0036413D01*
X0176310Y0034840D02*
X0142938Y0034840D01*
X0141365Y0033266D02*
X0176310Y0033266D01*
X0176310Y0031693D02*
X0139791Y0031693D01*
X0138218Y0030120D02*
X0176310Y0030120D01*
X0176310Y0028546D02*
X0136645Y0028546D01*
X0135072Y0026973D02*
X0176310Y0026973D01*
X0176310Y0025400D02*
X0133498Y0025400D01*
X0131925Y0023826D02*
X0154193Y0023826D01*
X0153175Y0022253D02*
X0130352Y0022253D01*
X0128778Y0020680D02*
X0151878Y0020680D01*
X0150304Y0019106D02*
X0127205Y0019106D01*
X0127741Y0026973D02*
X0128602Y0026973D01*
X0127741Y0028546D02*
X0130175Y0028546D01*
X0131748Y0030120D02*
X0127741Y0030120D01*
X0127741Y0031693D02*
X0133322Y0031693D01*
X0134895Y0033266D02*
X0127741Y0033266D01*
X0127741Y0034840D02*
X0136468Y0034840D01*
X0138042Y0036413D02*
X0127741Y0036413D01*
X0127741Y0037986D02*
X0138781Y0037986D01*
X0138781Y0039560D02*
X0127741Y0039560D01*
X0127741Y0041133D02*
X0138781Y0041133D01*
X0138781Y0042706D02*
X0126352Y0042706D01*
X0120026Y0044279D02*
X0138781Y0044279D01*
X0138781Y0045853D02*
X0120026Y0045853D01*
X0119943Y0047426D02*
X0138781Y0047426D01*
X0138781Y0048999D02*
X0120026Y0048999D01*
X0120026Y0050573D02*
X0138781Y0050573D01*
X0138781Y0052146D02*
X0119997Y0052146D01*
X0116861Y0052146D02*
X0116861Y0052146D01*
X0116861Y0053587D02*
X0116861Y0050028D01*
X0116861Y0050028D01*
X0116861Y0053587D01*
X0114012Y0053719D02*
X0138781Y0053719D01*
X0138781Y0055293D02*
X0106363Y0055293D01*
X0107936Y0056866D02*
X0138781Y0056866D01*
X0138781Y0058439D02*
X0109510Y0058439D01*
X0111083Y0060013D02*
X0138781Y0060013D01*
X0138781Y0061586D02*
X0112656Y0061586D01*
X0114230Y0063159D02*
X0138781Y0063159D01*
X0138781Y0064733D02*
X0115803Y0064733D01*
X0117376Y0066306D02*
X0126352Y0066306D01*
X0126787Y0065871D02*
X0125187Y0067471D01*
X0124321Y0069562D01*
X0124321Y0071824D01*
X0125187Y0073915D01*
X0126787Y0075514D01*
X0128877Y0076380D01*
X0131140Y0076380D01*
X0133230Y0075514D01*
X0134830Y0073915D01*
X0135696Y0071824D01*
X0135696Y0069562D01*
X0134830Y0067471D01*
X0133230Y0065871D01*
X0131140Y0065006D01*
X0128877Y0065006D01*
X0126787Y0065871D01*
X0125018Y0067879D02*
X0118950Y0067879D01*
X0120523Y0069453D02*
X0124366Y0069453D01*
X0124321Y0071026D02*
X0121978Y0071026D01*
X0121978Y0072599D02*
X0124642Y0072599D01*
X0125445Y0074172D02*
X0121978Y0074172D01*
X0121978Y0075746D02*
X0127345Y0075746D01*
X0132671Y0075746D02*
X0138781Y0075746D01*
X0138781Y0077319D02*
X0121978Y0077319D01*
X0121978Y0078892D02*
X0138781Y0078892D01*
X0138781Y0080466D02*
X0121978Y0080466D01*
X0121978Y0082039D02*
X0138781Y0082039D01*
X0138781Y0083612D02*
X0121978Y0083612D01*
X0121978Y0085186D02*
X0138781Y0085186D01*
X0138781Y0086759D02*
X0121978Y0086759D01*
X0121978Y0088332D02*
X0138781Y0088332D01*
X0138781Y0089906D02*
X0121978Y0089906D01*
X0121978Y0091479D02*
X0127369Y0091479D01*
X0127132Y0091600D02*
X0127902Y0091208D01*
X0128723Y0090941D01*
X0129576Y0090806D01*
X0129796Y0090805D01*
X0129796Y0096080D01*
X0124521Y0096080D01*
X0124521Y0095861D01*
X0124656Y0095008D01*
X0124923Y0094186D01*
X0125315Y0093417D01*
X0125823Y0092718D01*
X0126433Y0092107D01*
X0127132Y0091600D01*
X0125580Y0093052D02*
X0121978Y0093052D01*
X0121978Y0094626D02*
X0124780Y0094626D01*
X0124719Y0097772D02*
X0121978Y0097772D01*
X0121978Y0096199D02*
X0129796Y0096199D01*
X0130221Y0096199D02*
X0142121Y0096199D01*
X0142265Y0097772D02*
X0135297Y0097772D01*
X0134573Y0099345D02*
X0142917Y0099345D01*
X0142648Y0100919D02*
X0142648Y0100919D01*
X0142648Y0102492D02*
X0142648Y0102492D01*
X0146207Y0102492D02*
X0176113Y0102492D01*
X0176113Y0100919D02*
X0176310Y0100919D01*
X0176310Y0104065D02*
X0176113Y0104065D01*
X0176113Y0105639D02*
X0176310Y0105639D01*
X0176310Y0107212D02*
X0176113Y0107212D01*
X0179441Y0110359D02*
X0145955Y0110359D01*
X0144936Y0111932D02*
X0179055Y0111932D01*
X0177481Y0113505D02*
X0146407Y0113505D01*
X0146407Y0115079D02*
X0176793Y0115079D01*
X0175326Y0093052D02*
X0175326Y0093052D01*
X0175326Y0091479D02*
X0175326Y0091479D01*
X0145145Y0075746D02*
X0143356Y0075746D01*
X0138781Y0074172D02*
X0134572Y0074172D01*
X0135375Y0072599D02*
X0138781Y0072599D01*
X0138781Y0071026D02*
X0135696Y0071026D01*
X0135650Y0069453D02*
X0138781Y0069453D01*
X0138781Y0067879D02*
X0134999Y0067879D01*
X0133664Y0066306D02*
X0138781Y0066306D01*
X0116861Y0050573D02*
X0116861Y0050573D01*
X0116861Y0048999D02*
X0116861Y0048999D01*
X0116861Y0047426D02*
X0116861Y0047426D01*
X0116861Y0045853D02*
X0116861Y0045853D01*
X0108378Y0045853D02*
X0106447Y0045853D01*
X0106447Y0047426D02*
X0108378Y0047426D01*
X0108378Y0048999D02*
X0100014Y0048999D01*
X0101643Y0050573D02*
X0108378Y0050573D01*
X0108378Y0052146D02*
X0103216Y0052146D01*
X0104790Y0053719D02*
X0109474Y0053719D01*
X0108378Y0044279D02*
X0106447Y0044279D01*
X0106447Y0042706D02*
X0108378Y0042706D01*
X0105858Y0041133D02*
X0103455Y0041133D01*
X0101881Y0039560D02*
X0105858Y0039560D01*
X0105858Y0037986D02*
X0100188Y0037986D01*
X0099846Y0036413D02*
X0105858Y0036413D01*
X0105858Y0034840D02*
X0098325Y0034840D01*
X0098182Y0033266D02*
X0105858Y0033266D01*
X0106058Y0032154D02*
X0106432Y0032154D01*
X0106432Y0032154D01*
X0106058Y0032154D01*
X0106058Y0031693D02*
X0098325Y0031693D01*
X0098439Y0030120D02*
X0099341Y0030120D01*
X0101802Y0030120D02*
X0102786Y0030120D01*
X0102786Y0030162D02*
X0102786Y0025914D01*
X0106641Y0025914D01*
X0106641Y0028610D01*
X0106519Y0029065D01*
X0106283Y0029472D01*
X0105951Y0029805D01*
X0105543Y0030040D01*
X0105088Y0030162D01*
X0102786Y0030162D01*
X0102786Y0028546D02*
X0101802Y0028546D01*
X0101802Y0026973D02*
X0102786Y0026973D01*
X0102786Y0025400D02*
X0113889Y0025400D01*
X0113889Y0026973D02*
X0106641Y0026973D01*
X0106641Y0028546D02*
X0113889Y0028546D01*
X0112646Y0030120D02*
X0112428Y0030120D01*
X0109617Y0030120D02*
X0109617Y0030120D01*
X0109617Y0029796D02*
X0109617Y0031545D01*
X0109617Y0031545D01*
X0109617Y0029796D01*
X0106806Y0030120D02*
X0105247Y0030120D01*
X0106641Y0023826D02*
X0113889Y0023826D01*
X0088741Y0019106D02*
X0084806Y0019106D01*
X0084806Y0017533D02*
X0148731Y0017533D01*
X0147158Y0015960D02*
X0084806Y0015960D01*
X0084184Y0011643D02*
X0082019Y0011643D01*
X0084184Y0011643D02*
X0146782Y0011643D01*
X0148748Y0009667D02*
X0176310Y0009667D01*
X0176310Y0011240D02*
X0150322Y0011240D01*
X0151895Y0012813D02*
X0176310Y0012813D01*
X0176310Y0014387D02*
X0153468Y0014387D01*
X0155042Y0015960D02*
X0176310Y0015960D01*
X0176310Y0017533D02*
X0156615Y0017533D01*
X0159019Y0019106D02*
X0176310Y0019106D01*
X0176310Y0020680D02*
X0159803Y0020680D01*
X0159681Y0022253D02*
X0176310Y0022253D01*
X0176310Y0023826D02*
X0158662Y0023826D01*
X0176310Y0008093D02*
X0004066Y0008093D01*
X0004066Y0006520D02*
X0176310Y0006520D01*
X0176310Y0004947D02*
X0004066Y0004947D01*
X0004066Y0009667D02*
X0057962Y0009667D01*
X0057384Y0011240D02*
X0004066Y0011240D01*
X0004066Y0012813D02*
X0057591Y0012813D01*
X0058730Y0014387D02*
X0004066Y0014387D01*
X0004066Y0015960D02*
X0036842Y0015960D01*
X0035910Y0017533D02*
X0004066Y0017533D01*
X0004066Y0019106D02*
X0035973Y0019106D01*
X0036778Y0020680D02*
X0004066Y0020680D01*
X0004066Y0022253D02*
X0036778Y0022253D01*
X0036778Y0023826D02*
X0004066Y0023826D01*
X0004066Y0025400D02*
X0036778Y0025400D01*
X0036778Y0026973D02*
X0004066Y0026973D01*
X0004066Y0028546D02*
X0036778Y0028546D01*
X0036778Y0030120D02*
X0004066Y0030120D01*
X0004066Y0031693D02*
X0036926Y0031693D01*
X0038500Y0033266D02*
X0004066Y0033266D01*
X0004066Y0034840D02*
X0013491Y0034840D01*
X0012590Y0036413D02*
X0004066Y0036413D01*
X0004066Y0037986D02*
X0012590Y0037986D01*
X0012590Y0039560D02*
X0004066Y0039560D01*
X0004066Y0041133D02*
X0012590Y0041133D01*
X0012590Y0042706D02*
X0004066Y0042706D01*
X0004066Y0044279D02*
X0012590Y0044279D01*
X0012590Y0045853D02*
X0004066Y0045853D01*
X0004066Y0047426D02*
X0012590Y0047426D01*
X0012790Y0048999D02*
X0004066Y0048999D01*
X0027475Y0034840D02*
X0040073Y0034840D01*
X0041646Y0036413D02*
X0030533Y0036413D01*
X0032107Y0037986D02*
X0043220Y0037986D01*
X0044793Y0039560D02*
X0033680Y0039560D01*
X0035253Y0041133D02*
X0046366Y0041133D01*
X0047940Y0042706D02*
X0036827Y0042706D01*
X0038400Y0044279D02*
X0049513Y0044279D01*
X0051086Y0045853D02*
X0039973Y0045853D01*
X0041547Y0047426D02*
X0052660Y0047426D01*
X0054233Y0048999D02*
X0043120Y0048999D01*
X0044693Y0050573D02*
X0055806Y0050573D01*
X0057379Y0052146D02*
X0046266Y0052146D01*
X0047840Y0053719D02*
X0058953Y0053719D01*
X0060526Y0055293D02*
X0049413Y0055293D01*
X0050986Y0056866D02*
X0062099Y0056866D01*
X0063673Y0058439D02*
X0052560Y0058439D01*
X0054133Y0060013D02*
X0065246Y0060013D01*
X0066819Y0061586D02*
X0055706Y0061586D01*
X0057280Y0063159D02*
X0068393Y0063159D01*
X0069966Y0064733D02*
X0058853Y0064733D01*
X0060426Y0066306D02*
X0064428Y0066306D01*
X0063093Y0067879D02*
X0062000Y0067879D01*
X0071716Y0060013D02*
X0076631Y0060013D01*
X0076631Y0061586D02*
X0073289Y0061586D01*
X0074862Y0063159D02*
X0076631Y0063159D01*
X0076631Y0064733D02*
X0076436Y0064733D01*
X0084203Y0064733D02*
X0088757Y0064733D01*
X0088583Y0065153D02*
X0089068Y0063981D01*
X0089965Y0063085D01*
X0091136Y0062599D01*
X0092404Y0062599D01*
X0092920Y0062813D01*
X0092920Y0061707D01*
X0093405Y0060535D01*
X0093820Y0060121D01*
X0093820Y0056816D01*
X0095160Y0055476D01*
X0096377Y0054259D01*
X0096175Y0054175D01*
X0095278Y0053279D01*
X0094793Y0052107D01*
X0094793Y0050839D01*
X0095278Y0049668D01*
X0096080Y0048866D01*
X0095762Y0048866D01*
X0094617Y0047721D01*
X0094121Y0048217D01*
X0094314Y0048551D01*
X0094436Y0049006D01*
X0094436Y0051013D01*
X0094436Y0053020D01*
X0094314Y0053474D01*
X0094079Y0053882D01*
X0093746Y0054215D01*
X0093338Y0054450D01*
X0092884Y0054572D01*
X0091271Y0054572D01*
X0091271Y0051013D01*
X0094436Y0051013D01*
X0091271Y0051013D01*
X0091271Y0051013D01*
X0091270Y0051013D01*
X0091270Y0054572D01*
X0089657Y0054572D01*
X0089203Y0054450D01*
X0088868Y0054257D01*
X0088354Y0054772D01*
X0084203Y0054772D01*
X0084203Y0066214D01*
X0100973Y0082985D01*
X0101022Y0082803D01*
X0101258Y0082395D01*
X0101590Y0082063D01*
X0101998Y0081827D01*
X0102452Y0081706D01*
X0104454Y0081706D01*
X0091723Y0068974D01*
X0091136Y0068974D01*
X0089965Y0068489D01*
X0089068Y0067592D01*
X0088583Y0066421D01*
X0088583Y0065153D01*
X0088583Y0066306D02*
X0084294Y0066306D01*
X0085867Y0067879D02*
X0089355Y0067879D01*
X0087441Y0069453D02*
X0092201Y0069453D01*
X0093774Y0071026D02*
X0089014Y0071026D01*
X0090587Y0072599D02*
X0095348Y0072599D01*
X0096921Y0074172D02*
X0092161Y0074172D01*
X0093734Y0075746D02*
X0098494Y0075746D01*
X0100068Y0077319D02*
X0095307Y0077319D01*
X0096881Y0078892D02*
X0101641Y0078892D01*
X0103214Y0080466D02*
X0098454Y0080466D01*
X0100027Y0082039D02*
X0101631Y0082039D01*
X0104459Y0082039D02*
X0104459Y0082039D01*
X0104459Y0081711D02*
X0104459Y0081711D01*
X0104459Y0084871D01*
X0104459Y0084871D01*
X0104459Y0081711D01*
X0104459Y0083612D02*
X0104459Y0083612D01*
X0121978Y0099345D02*
X0125443Y0099345D01*
X0127040Y0100919D02*
X0121978Y0100919D01*
X0121978Y0102492D02*
X0124972Y0102492D01*
X0124126Y0104065D02*
X0121978Y0104065D01*
X0121978Y0105639D02*
X0124126Y0105639D01*
X0124126Y0107212D02*
X0121978Y0107212D01*
X0121978Y0108785D02*
X0124126Y0108785D01*
X0132609Y0110462D02*
X0132609Y0114989D01*
X0132609Y0114989D01*
X0132609Y0114020D01*
X0132609Y0110462D01*
X0132609Y0110462D01*
X0132609Y0111932D02*
X0132609Y0111932D01*
X0132609Y0113505D02*
X0132609Y0113505D01*
X0138121Y0107509D02*
X0138121Y0107509D01*
X0138121Y0104343D01*
X0138121Y0107509D01*
X0138121Y0107212D02*
X0138121Y0107212D01*
X0138121Y0105639D02*
X0138121Y0105639D01*
X0139089Y0104065D02*
X0135974Y0104065D01*
X0135879Y0102492D02*
X0139089Y0102492D01*
X0139104Y0100919D02*
X0135421Y0100919D01*
X0135236Y0094626D02*
X0142343Y0094626D01*
X0141333Y0093052D02*
X0134437Y0093052D01*
X0132647Y0091479D02*
X0139759Y0091479D01*
X0130221Y0091479D02*
X0129796Y0091479D01*
X0129796Y0093052D02*
X0130221Y0093052D01*
X0130221Y0094626D02*
X0129796Y0094626D01*
X0092970Y0061586D02*
X0084203Y0061586D01*
X0084203Y0063159D02*
X0089890Y0063159D01*
X0093820Y0060013D02*
X0084203Y0060013D01*
X0084203Y0058439D02*
X0093820Y0058439D01*
X0093820Y0056866D02*
X0084203Y0056866D01*
X0084203Y0055293D02*
X0095343Y0055293D01*
X0095719Y0053719D02*
X0094172Y0053719D01*
X0094436Y0052146D02*
X0094809Y0052146D01*
X0094903Y0050573D02*
X0094436Y0050573D01*
X0094434Y0048999D02*
X0095946Y0048999D01*
X0091271Y0052146D02*
X0091270Y0052146D01*
X0091270Y0053719D02*
X0091271Y0053719D01*
X0076631Y0053719D02*
X0065423Y0053719D01*
X0066996Y0055293D02*
X0076631Y0055293D01*
X0076631Y0056866D02*
X0068569Y0056866D01*
X0070142Y0058439D02*
X0076631Y0058439D01*
X0076631Y0052146D02*
X0063849Y0052146D01*
X0062276Y0050573D02*
X0076631Y0050573D01*
X0076631Y0048999D02*
X0060703Y0048999D01*
X0059129Y0047426D02*
X0076631Y0047426D01*
X0076631Y0045853D02*
X0057556Y0045853D01*
X0055983Y0044279D02*
X0076631Y0044279D01*
X0076631Y0042706D02*
X0054409Y0042706D01*
X0052836Y0041133D02*
X0076631Y0041133D01*
X0076631Y0039560D02*
X0051263Y0039560D01*
X0049689Y0037986D02*
X0076631Y0037986D01*
X0076631Y0036413D02*
X0048116Y0036413D01*
X0046543Y0034840D02*
X0076631Y0034840D01*
X0076631Y0033266D02*
X0044969Y0033266D01*
X0043396Y0031693D02*
X0076631Y0031693D01*
X0077727Y0030120D02*
X0041823Y0030120D01*
X0041353Y0028546D02*
X0079301Y0028546D01*
X0080874Y0026973D02*
X0041353Y0026973D01*
X0041353Y0025400D02*
X0080750Y0025400D01*
X0079009Y0023826D02*
X0041353Y0023826D01*
X0041353Y0022253D02*
X0078644Y0022253D01*
X0079025Y0020680D02*
X0041353Y0020680D01*
X0042158Y0019106D02*
X0079231Y0019106D01*
X0079231Y0017533D02*
X0042222Y0017533D01*
X0041290Y0015960D02*
X0079231Y0015960D01*
X0085012Y0020680D02*
X0087167Y0020680D01*
X0085594Y0022253D02*
X0085393Y0022253D01*
X0088515Y0028769D02*
X0088385Y0028898D01*
X0086152Y0032706D02*
X0084774Y0032706D01*
X0077401Y0087170D02*
X0073926Y0087170D01*
X0070116Y0090979D01*
X0071305Y0091471D01*
X0071960Y0092126D01*
X0071960Y0089756D01*
X0073124Y0088592D01*
X0077527Y0088592D01*
X0078042Y0089107D01*
X0078376Y0088914D01*
X0078830Y0088792D01*
X0079024Y0088792D01*
X0077401Y0087170D01*
X0078564Y0088332D02*
X0072763Y0088332D01*
X0071960Y0089906D02*
X0071189Y0089906D01*
X0071313Y0091479D02*
X0071960Y0091479D01*
X0183624Y0159102D02*
X0184991Y0160470D01*
X0185306Y0161230D01*
X0185794Y0161230D01*
X0186309Y0161745D01*
X0186644Y0161552D01*
X0187098Y0161430D01*
X0189302Y0161430D01*
X0189302Y0164989D01*
X0189696Y0164989D01*
X0189696Y0161430D01*
X0191899Y0161430D01*
X0192354Y0161552D01*
X0192644Y0161719D01*
X0192644Y0159102D01*
X0189561Y0159102D01*
X0188397Y0157938D01*
X0188397Y0156781D01*
X0187652Y0156781D01*
X0186481Y0156296D01*
X0185876Y0155691D01*
X0185876Y0157938D01*
X0184712Y0159102D01*
X0183624Y0159102D01*
X0183653Y0159131D02*
X0192644Y0159131D01*
X0192644Y0160705D02*
X0185089Y0160705D01*
X0185876Y0157558D02*
X0188397Y0157558D01*
X0186169Y0155985D02*
X0185876Y0155985D01*
X0189302Y0162278D02*
X0189696Y0162278D01*
X0189696Y0163851D02*
X0189302Y0163851D01*
X0189302Y0165383D02*
X0189302Y0168710D01*
X0189696Y0168710D01*
X0189696Y0165383D01*
X0189302Y0165383D01*
X0189302Y0165425D02*
X0189696Y0165425D01*
X0189696Y0166998D02*
X0189302Y0166998D01*
X0189302Y0168571D02*
X0189696Y0168571D01*
D38*
X0186767Y0142582D02*
X0172206Y0142582D01*
X0165256Y0135633D01*
X0158319Y0128696D01*
X0133048Y0128696D01*
X0123779Y0119428D01*
X0119740Y0119428D01*
X0119690Y0119477D01*
X0116822Y0119477D01*
X0116822Y0117509D02*
X0123759Y0117509D01*
X0133156Y0126905D01*
X0160096Y0126905D01*
X0174572Y0141381D01*
X0186152Y0141381D01*
X0186152Y0139202D01*
X0186152Y0138967D01*
X0186152Y0137322D01*
X0186452Y0137022D01*
X0189698Y0137022D01*
X0190370Y0137694D01*
X0190370Y0138217D01*
X0193042Y0138217D01*
X0195076Y0140638D02*
X0195901Y0139813D01*
X0195901Y0099821D01*
X0192058Y0095978D01*
X0192058Y0093828D01*
X0186152Y0093828D02*
X0186152Y0096299D01*
X0181728Y0100723D01*
X0181728Y0112493D01*
X0179080Y0115141D01*
X0179080Y0120892D01*
X0176600Y0123372D01*
X0176600Y0129881D01*
X0181344Y0134625D01*
X0181344Y0134772D01*
X0183593Y0137022D01*
X0183593Y0139202D01*
X0186767Y0142582D02*
X0188711Y0140638D01*
X0188711Y0139202D01*
X0188711Y0140638D02*
X0195076Y0140638D01*
X0147808Y0096293D02*
X0141068Y0089553D01*
X0141068Y0036205D01*
X0125029Y0020165D01*
X0090917Y0020165D01*
X0078919Y0032163D01*
X0078919Y0068753D01*
X0093200Y0083034D01*
X0093200Y0097824D01*
X0095168Y0097824D02*
X0095168Y0083306D01*
X0080119Y0068257D01*
X0080119Y0032660D01*
X0091398Y0021382D01*
X0124533Y0021382D01*
X0125454Y0022303D01*
X0125454Y0040369D01*
X0124929Y0040894D01*
X0114208Y0040894D01*
X0114208Y0039979D01*
X0114208Y0040894D02*
X0114208Y0049841D01*
X0114021Y0050028D01*
X0111743Y0050028D01*
X0103081Y0045107D02*
X0102969Y0045107D01*
X0102181Y0043505D01*
X0099309Y0051473D02*
X0097980Y0051473D01*
X0099309Y0051473D02*
X0119690Y0071855D01*
X0119690Y0109635D01*
X0116822Y0109635D01*
X0116822Y0111603D02*
X0119690Y0111603D01*
X0124662Y0111603D01*
X0125804Y0110461D01*
X0127491Y0110461D01*
X0127491Y0105934D01*
X0123796Y0113572D02*
X0119690Y0113572D01*
X0116822Y0113572D01*
X0116822Y0115540D02*
X0123620Y0115540D01*
X0125928Y0117848D01*
X0134981Y0117848D01*
X0138121Y0114708D01*
X0138121Y0112627D01*
X0140596Y0112627D01*
X0142648Y0112627D01*
X0142648Y0107706D01*
X0142648Y0112627D02*
X0142648Y0115383D01*
X0127491Y0114989D02*
X0125213Y0114989D01*
X0123796Y0113572D01*
X0116822Y0107666D02*
X0113953Y0107666D01*
X0113953Y0119149D01*
X0113027Y0120074D01*
X0110916Y0122345D02*
X0113953Y0125383D01*
X0116822Y0125383D01*
X0116822Y0127351D02*
X0113953Y0127351D01*
X0113867Y0127266D01*
X0112802Y0127266D01*
X0111927Y0129382D02*
X0109692Y0127146D01*
X0109692Y0107978D01*
X0112740Y0104930D01*
X0112740Y0072698D01*
X0099037Y0058996D01*
X0102244Y0059106D02*
X0113940Y0070802D01*
X0113940Y0105428D01*
X0110916Y0108451D01*
X0110916Y0122345D01*
X0116822Y0121446D02*
X0119690Y0121446D01*
X0119786Y0121542D01*
X0120809Y0121542D01*
X0119690Y0123414D02*
X0120231Y0123955D01*
X0125349Y0123955D01*
X0130762Y0129369D01*
X0130762Y0132892D01*
X0130245Y0133409D01*
X0126496Y0133409D01*
X0125410Y0134495D01*
X0125410Y0137512D01*
X0124404Y0138517D01*
X0120129Y0138517D01*
X0119306Y0139340D01*
X0119306Y0143417D01*
X0134780Y0158890D01*
X0134780Y0167974D01*
X0134160Y0168594D01*
X0073891Y0168594D01*
X0068515Y0163217D01*
X0068054Y0144452D02*
X0078067Y0144452D01*
X0079420Y0143099D01*
X0081389Y0143099D02*
X0081389Y0130386D01*
X0084180Y0127595D01*
X0084180Y0122173D01*
X0080105Y0121661D02*
X0080105Y0120358D01*
X0091044Y0109418D01*
X0091044Y0108399D01*
X0088262Y0106899D02*
X0088262Y0110504D01*
X0078905Y0119861D01*
X0078905Y0120892D01*
X0074415Y0125383D01*
X0071546Y0125383D01*
X0071546Y0127351D02*
X0074415Y0127351D01*
X0080105Y0121661D01*
X0077705Y0120124D02*
X0077705Y0119364D01*
X0085826Y0111242D01*
X0085826Y0105077D01*
X0083558Y0107051D02*
X0083558Y0111814D01*
X0076505Y0118867D01*
X0076505Y0119356D01*
X0074415Y0121446D01*
X0071546Y0121446D01*
X0071546Y0123414D02*
X0074415Y0123414D01*
X0077705Y0120124D01*
X0074415Y0119477D02*
X0071546Y0119477D01*
X0071546Y0117509D02*
X0074415Y0117509D01*
X0077423Y0114500D01*
X0077423Y0100671D01*
X0076876Y0100124D01*
X0081360Y0104780D02*
X0081360Y0112315D01*
X0074415Y0119260D01*
X0074415Y0119477D01*
X0071546Y0115540D02*
X0068678Y0115540D01*
X0068678Y0115542D01*
X0066299Y0117921D01*
X0062237Y0115805D02*
X0062237Y0122879D01*
X0068678Y0129320D01*
X0071546Y0129320D01*
X0071546Y0131288D02*
X0061802Y0131288D01*
X0051756Y0141334D01*
X0058491Y0131839D02*
X0061169Y0129161D01*
X0058491Y0131839D02*
X0027289Y0131839D01*
X0020483Y0131839D01*
X0020483Y0128690D02*
X0027289Y0128690D01*
X0043955Y0128690D01*
X0061041Y0111603D01*
X0068678Y0111603D01*
X0071546Y0111603D01*
X0071546Y0109635D02*
X0068678Y0109635D01*
X0061313Y0109635D01*
X0045407Y0125540D01*
X0020483Y0125540D01*
X0020483Y0122391D02*
X0046860Y0122391D01*
X0061584Y0107666D01*
X0071546Y0107666D01*
X0071546Y0105698D02*
X0061462Y0105698D01*
X0047919Y0119241D01*
X0027289Y0119241D01*
X0020483Y0119241D01*
X0020483Y0116091D02*
X0027289Y0116091D01*
X0028220Y0117023D01*
X0045452Y0117023D01*
X0053336Y0109139D01*
X0053336Y0104524D01*
X0072978Y0084882D01*
X0078349Y0084882D01*
X0083357Y0089891D01*
X0083357Y0097824D01*
X0085326Y0097824D02*
X0085326Y0089741D01*
X0078996Y0083411D01*
X0072752Y0083412D01*
X0051765Y0104398D01*
X0051765Y0108985D01*
X0044927Y0115823D01*
X0030170Y0115823D01*
X0027289Y0112942D01*
X0020483Y0112942D01*
X0020483Y0109792D02*
X0027289Y0109792D01*
X0027289Y0109844D01*
X0028240Y0110795D01*
X0030365Y0110903D02*
X0032152Y0112691D01*
X0030365Y0110903D02*
X0030365Y0106569D01*
X0027289Y0103493D01*
X0020483Y0103493D01*
X0020483Y0106643D02*
X0027289Y0106643D01*
X0027289Y0106777D01*
X0028261Y0107749D01*
X0031906Y0109456D02*
X0031906Y0100830D01*
X0032426Y0100309D01*
X0033407Y0100309D01*
X0035281Y0098436D01*
X0035281Y0073690D01*
X0027289Y0065698D01*
X0020483Y0065698D01*
X0020483Y0062548D02*
X0027289Y0062548D01*
X0030199Y0065459D01*
X0033650Y0065760D02*
X0033650Y0065787D01*
X0033650Y0065760D02*
X0027289Y0059398D01*
X0020483Y0059398D01*
X0020483Y0046800D02*
X0027289Y0046800D01*
X0045660Y0065171D01*
X0045660Y0084053D01*
X0056509Y0094903D01*
X0056509Y0096640D01*
X0040877Y0109200D02*
X0040877Y0110068D01*
X0039536Y0106662D02*
X0039536Y0105209D01*
X0037249Y0102587D02*
X0034578Y0102587D01*
X0037249Y0102587D02*
X0038598Y0101239D01*
X0031906Y0109456D02*
X0036161Y0113712D01*
X0020483Y0097194D02*
X0020483Y0096288D01*
X0066765Y0079274D02*
X0031142Y0043650D01*
X0020483Y0043650D01*
X0020483Y0040501D02*
X0029689Y0040501D01*
X0067262Y0078074D01*
X0077942Y0078074D01*
X0089263Y0089394D01*
X0089263Y0097824D01*
X0091231Y0097824D02*
X0091231Y0089016D01*
X0078717Y0076502D01*
X0067388Y0076502D01*
X0028237Y0037351D01*
X0020483Y0037351D01*
X0039066Y0030598D02*
X0039066Y0018243D01*
X0039066Y0030598D02*
X0088025Y0079557D01*
X0088025Y0082677D01*
X0087294Y0089595D02*
X0076973Y0079274D01*
X0066765Y0079274D01*
X0087294Y0089595D02*
X0087294Y0097824D01*
X0097137Y0097824D02*
X0097137Y0100692D01*
X0097137Y0104926D01*
X0097838Y0105628D01*
X0100255Y0103802D02*
X0100255Y0100832D01*
X0101074Y0100013D01*
X0101074Y0097824D01*
X0103042Y0097824D02*
X0103042Y0100692D01*
X0102376Y0101358D01*
X0102376Y0101680D01*
X0099105Y0097824D02*
X0099105Y0094955D01*
X0100221Y0093840D01*
X0102114Y0093840D01*
X0108948Y0094955D02*
X0109124Y0094779D01*
X0109124Y0083141D01*
X0091770Y0065787D01*
X0096107Y0062341D02*
X0096107Y0057763D01*
X0097668Y0056202D01*
X0102333Y0056202D01*
X0116822Y0070691D01*
X0116822Y0105698D01*
X0110437Y0104251D02*
X0096103Y0118585D01*
X0092011Y0118585D01*
X0090781Y0119815D01*
X0090781Y0130641D01*
X0089263Y0132159D01*
X0089263Y0140231D01*
X0089263Y0143099D01*
X0091231Y0143099D02*
X0091231Y0140231D01*
X0091090Y0140090D01*
X0091090Y0134965D01*
X0092263Y0133792D01*
X0092263Y0121303D01*
X0092881Y0120685D01*
X0089581Y0119318D02*
X0094429Y0114470D01*
X0095713Y0114470D01*
X0095699Y0111503D02*
X0100181Y0111503D01*
X0109533Y0102151D01*
X0110022Y0102151D01*
X0111539Y0100633D01*
X0111539Y0074494D01*
X0109027Y0071982D01*
X0106031Y0072735D02*
X0106031Y0068986D01*
X0106031Y0072735D02*
X0110324Y0077028D01*
X0110324Y0100137D01*
X0109510Y0100951D01*
X0109036Y0100951D01*
X0100284Y0109703D01*
X0095802Y0109703D01*
X0087181Y0118324D01*
X0087181Y0126715D01*
X0083357Y0130539D01*
X0083357Y0143099D01*
X0085326Y0143099D02*
X0085326Y0131969D01*
X0088381Y0128913D01*
X0088381Y0118821D01*
X0095699Y0111503D01*
X0099776Y0118195D02*
X0099776Y0119079D01*
X0113953Y0133257D01*
X0116822Y0133257D01*
X0116822Y0129320D02*
X0113953Y0129320D01*
X0113891Y0129382D01*
X0111927Y0129382D01*
X0116822Y0123414D02*
X0119690Y0123414D01*
X0104284Y0139036D02*
X0105011Y0139763D01*
X0105011Y0143099D01*
X0103042Y0143099D02*
X0103042Y0140764D01*
X0094423Y0132145D01*
X0094423Y0128535D01*
X0089581Y0130144D02*
X0089581Y0119318D01*
X0089581Y0130144D02*
X0087294Y0132430D01*
X0087294Y0140231D01*
X0087294Y0143099D01*
X0093200Y0143099D02*
X0093200Y0138248D01*
X0095168Y0143099D02*
X0095168Y0145968D01*
X0093998Y0147137D01*
X0029988Y0147137D01*
X0027289Y0144438D01*
X0020483Y0144438D01*
X0020483Y0147587D02*
X0027289Y0147587D01*
X0028039Y0148337D01*
X0094767Y0148337D01*
X0097137Y0145968D01*
X0097137Y0143099D01*
X0099105Y0143099D02*
X0099105Y0145968D01*
X0094336Y0150737D01*
X0020483Y0150737D01*
X0071546Y0113572D02*
X0074415Y0113572D01*
X0075084Y0113572D01*
X0075323Y0113332D01*
X0108948Y0097824D02*
X0108948Y0094955D01*
X0086152Y0051013D02*
X0086152Y0045107D01*
X0174341Y0073257D02*
X0174341Y0075535D01*
X0174341Y0080847D01*
X0174365Y0080871D01*
X0175019Y0081524D01*
X0177605Y0081524D01*
X0179755Y0081524D01*
X0177387Y0079151D02*
X0180026Y0076513D01*
X0180427Y0076914D01*
X0182215Y0076914D01*
X0182215Y0079064D01*
X0180026Y0076513D02*
X0179437Y0075924D01*
X0179437Y0074570D01*
X0179263Y0074396D01*
X0179263Y0073257D01*
X0184184Y0073257D02*
X0184184Y0075535D01*
X0185435Y0076786D01*
X0188121Y0076786D01*
X0188121Y0079064D01*
X0190089Y0079064D02*
X0190089Y0076343D01*
X0187024Y0073277D01*
X0187024Y0071655D01*
X0185786Y0070417D01*
X0184184Y0070417D01*
X0184184Y0068139D01*
X0174365Y0080871D02*
X0172982Y0082254D01*
X0101074Y0143099D02*
X0101074Y0148971D01*
X0100522Y0149522D01*
X0100522Y0151800D01*
D39*
X0104284Y0139036D03*
X0093200Y0138248D03*
X0094423Y0128535D03*
X0092881Y0120685D03*
X0095713Y0114470D03*
X0099776Y0118195D03*
X0091044Y0108399D03*
X0088262Y0106899D03*
X0085826Y0105077D03*
X0083558Y0107051D03*
X0081360Y0104780D03*
X0076876Y0100124D03*
X0075323Y0113332D03*
X0066299Y0117921D03*
X0062237Y0115805D03*
X0061169Y0129161D03*
X0051756Y0141334D03*
X0068054Y0144452D03*
X0084180Y0122173D03*
X0097838Y0105628D03*
X0100255Y0103802D03*
X0102376Y0101680D03*
X0110437Y0104251D03*
X0102114Y0093840D03*
X0088025Y0082677D03*
X0091770Y0065787D03*
X0096107Y0062341D03*
X0099037Y0058996D03*
X0102244Y0059106D03*
X0097980Y0051473D03*
X0106031Y0068986D03*
X0109027Y0071982D03*
X0056509Y0096640D03*
X0038598Y0101239D03*
X0028261Y0107749D03*
X0028240Y0110795D03*
X0032152Y0112691D03*
X0036161Y0113712D03*
X0033650Y0065787D03*
X0030199Y0065459D03*
X0039066Y0018243D03*
X0113027Y0120074D03*
X0112802Y0127266D03*
X0120809Y0121542D03*
X0165256Y0135633D03*
X0181344Y0134625D03*
X0188297Y0149393D03*
X0188286Y0153594D03*
X0195559Y0164398D03*
X0172982Y0082254D03*
X0177387Y0079151D03*
M02*
